<svg width="832" height="574" viewBox="0 0 832 574" fill="none" xmlns="http://www.w3.org/2000/svg">
<g clip-path="url(#clip0_4302_27453)">
<g opacity="0.8" filter="url(#filter0_f_4302_27453)">
<path d="M339.909 354.164C391.754 354.164 433.783 313.139 433.783 262.533C433.783 211.927 391.754 170.902 339.909 170.902C288.064 170.902 246.035 211.927 246.035 262.533C246.035 313.139 288.064 354.164 339.909 354.164Z" fill="#FFB5B1"/>
</g>
<path d="M493.406 89.2064V70.7207C493.406 69.276 493.981 67.8904 495.004 66.8689C496.027 65.8473 497.415 65.2734 498.862 65.2734H550.84C552.287 65.2734 553.675 65.8473 554.698 66.8689C555.721 67.8904 556.296 69.276 556.296 70.7207V89.2064C556.294 90.6497 555.718 92.0331 554.695 93.0529C553.672 94.0726 552.286 94.6454 550.84 94.6454H500.603L486.508 102.336L493.406 89.2064Z" fill="url(#paint0_linear_4302_27453)"/>
<path opacity="0.56" d="M499.519 79.8633H533.428V77.4976H499.519V79.8633Z" fill="white"/>
<path opacity="0.56" d="M499.519 73.9492H551.564V71.5835H499.519V73.9492Z" fill="white"/>
<path d="M532.347 115.348H370.09C364.921 115.348 360.73 119.541 360.73 124.714V237.278C360.73 242.451 364.921 246.644 370.09 246.644H532.347C537.516 246.644 541.706 242.451 541.706 237.278V124.714C541.706 119.541 537.516 115.348 532.347 115.348Z" fill="#528399"/>
<path d="M531.521 120.078H370.918C367.687 120.078 365.068 122.693 365.068 125.918V236.072C365.068 239.297 367.687 241.912 370.918 241.912H531.521C534.751 241.912 537.37 239.297 537.37 236.072V125.918C537.37 122.693 534.751 120.078 531.521 120.078Z" fill="url(#paint1_linear_4302_27453)"/>
<path d="M510.756 128.755C512.172 128.755 513.319 127.696 513.319 126.389C513.319 125.083 512.172 124.023 510.756 124.023C509.341 124.023 508.193 125.083 508.193 126.389C508.193 127.696 509.341 128.755 510.756 128.755Z" fill="white"/>
<path d="M519.825 128.755C521.24 128.755 522.387 127.696 522.387 126.389C522.387 125.083 521.24 124.023 519.825 124.023C518.409 124.023 517.262 125.083 517.262 126.389C517.262 127.696 518.409 128.755 519.825 128.755Z" fill="white"/>
<path d="M528.893 128.755C530.308 128.755 531.456 127.696 531.456 126.389C531.456 125.083 530.308 124.023 528.893 124.023C527.478 124.023 526.33 125.083 526.33 126.389C526.33 127.696 527.478 128.755 528.893 128.755Z" fill="white"/>
<path d="M499.053 124.023H375.393C373.611 124.023 372.166 125.434 372.166 127.174V127.182C372.166 128.922 373.611 130.332 375.393 130.332H499.053C500.835 130.332 502.28 128.922 502.28 127.182V127.174C502.28 125.434 500.835 124.023 499.053 124.023Z" fill="white"/>
<path d="M597.961 283.812L595.988 285.72L598.628 285.97L612.372 282.034L611.502 279.746L597.961 283.812Z" fill="#52787C"/>
<path d="M666.432 423.168H753.438C757.545 423.168 760.875 419.838 760.875 415.731V414.953C760.875 410.846 757.545 407.516 753.438 407.516H666.432C662.325 407.516 658.995 410.846 658.995 414.953V415.731C658.995 419.838 662.325 423.168 666.432 423.168Z" fill="#52787C"/>
<path d="M627.765 314.142L617.91 299.731L606.074 294.304C604.533 293.598 603.213 292.488 602.252 291.093C601.292 289.697 600.727 288.067 600.619 286.376L600.063 277.948C600.05 277.743 600.093 277.538 600.188 277.356C600.283 277.174 600.426 277.022 600.602 276.916C600.778 276.81 600.98 276.754 601.185 276.755C601.391 276.756 601.592 276.813 601.767 276.92L610.705 282.412L602.665 273.151C601.87 272.238 601.319 271.139 601.063 269.956C601.031 269.796 601.049 269.631 601.112 269.481C601.176 269.332 601.284 269.205 601.421 269.118C601.559 269.031 601.719 268.987 601.882 268.993C602.044 268.998 602.201 269.053 602.332 269.15L616.419 279.884L625.82 285.089L625.968 277.994C626.008 276.208 626.708 274.499 627.932 273.197L628.191 272.91C628.312 272.779 628.469 272.685 628.642 272.641C628.815 272.597 628.997 272.603 629.166 272.66C629.335 272.717 629.485 272.821 629.596 272.961C629.707 273.101 629.776 273.269 629.793 273.447L630.562 280.69L633.081 295.813L643.417 311.558L627.765 314.142Z" fill="url(#paint2_linear_4302_27453)"/>
<path d="M608.111 280.848L610.658 282.413L625.931 278.041L625.051 275.754L608.111 280.848Z" fill="#52787C"/>
<path d="M720.752 407.516H756.133C765.749 407.516 773.545 399.72 773.545 390.104V309.733C773.545 300.117 765.749 292.322 756.133 292.322H720.752C711.136 292.322 703.34 300.117 703.34 309.733V390.104C703.34 399.72 711.136 407.516 720.752 407.516Z" fill="#52787C"/>
<path d="M595.783 497.695L591.078 512.291H546.658L570.137 503.289L571.989 497.695H595.783Z" fill="#303838"/>
<path d="M692.209 284.09L659.367 327.387L639.76 305.743L621.375 316.042L647.966 345.706L665.526 349.92L703.333 318.802L692.209 284.09Z" fill="#DBE8FF"/>
<path d="M567.553 497.694L606.934 396.355C608.859 392.287 611.691 388.715 615.212 385.912C618.733 383.108 622.849 381.149 627.245 380.185L708.138 361.949L711.38 376.768C712.802 383.283 711.583 390.097 707.989 395.715C704.395 401.334 698.72 405.297 692.208 406.738L635.488 419.704L607.193 497.731L567.553 497.694Z" fill="#40738F"/>
<path d="M745.704 360.383L747.557 377.192C748.974 390.307 737.508 405.208 724.467 407.209L643.102 417.026L649.585 497.6L613.149 497.73L606.49 402.532C606.167 399.604 606.427 396.641 607.252 393.813C608.078 390.986 609.455 388.349 611.302 386.055C613.15 383.761 615.433 381.854 618.019 380.444C620.606 379.035 623.445 378.15 626.375 377.841L745.704 360.383Z" fill="#5589A7"/>
<path d="M645.316 497.695L647.854 512.291H603.443L622.476 504.993L621.522 497.695H645.316Z" fill="#4B4C4C"/>
<path d="M707.898 505H717.012V423.175H707.898V505Z" fill="#849FA0"/>
<path d="M731.664 512.29H692.273V511.947C692.273 510.108 693.004 508.343 694.305 507.042C695.606 505.741 697.371 505.011 699.211 505.011H724.727C726.567 505.011 728.331 505.741 729.632 507.042C730.933 508.343 731.664 510.108 731.664 511.947V512.309V512.29Z" fill="#849FA0"/>
<path d="M747.502 378.017L746.919 370.006L742.853 294.813L734.684 279.013L713.196 275.262C706.182 275.26 699.398 277.772 694.075 282.34C688.752 286.908 685.242 293.232 684.179 300.166L690.07 360.578L648.623 374.609L669.629 399.254L696.84 395.049L674.843 413.192L685.439 432.039L724.44 407.21L727.154 406.496C733.337 404.872 738.757 401.135 742.474 395.933C746.19 390.732 747.969 384.393 747.502 378.017Z" fill="#EFF5FF"/>
<path d="M717.021 299.703L706.101 329.405L687.744 330.886L715.613 337.434L717.021 299.703Z" fill="#C9DDFF"/>
<path d="M708.232 275.262L701.998 295.85L698.09 322.634L701.026 344.991L705.444 299.703L725.94 278.105L707.407 290.404L708.232 275.262Z" fill="#00B5D5"/>
<path d="M717.937 365.849L689.494 355.346L739.971 318.801L733.247 357.06C732.955 358.718 732.303 360.293 731.336 361.671C730.368 363.05 729.11 364.199 727.649 365.038C726.189 365.876 724.562 366.383 722.884 366.524C721.205 366.664 719.517 366.433 717.937 365.849Z" fill="#C9DDFF"/>
<g clip-path="url(#clip1_4302_27453)">
<path d="M613.998 342.843C613.667 342.845 613.344 342.745 613.072 342.556C612.801 342.368 612.594 342.1 612.48 341.79L595.029 294.407C594.941 294.17 594.918 293.914 594.96 293.665C595.002 293.416 595.108 293.183 595.268 292.987C595.429 292.792 595.637 292.642 595.873 292.552C596.109 292.462 596.365 292.436 596.614 292.475L609.29 291.586C609.711 291.648 610.108 291.826 610.435 292.098C610.763 292.371 611.009 292.728 611.146 293.132L627.96 340.698C628.046 340.942 628.073 341.203 628.038 341.46C628.002 341.716 627.906 341.96 627.756 342.172C627.606 342.383 627.408 342.555 627.177 342.674C626.947 342.792 626.691 342.853 626.432 342.852L613.998 342.843Z" fill="#FF6961"/>
<path d="M607.626 291.711L625.706 342.842H610.981C610.649 342.843 610.325 342.743 610.052 342.555C609.779 342.367 609.57 342.1 609.454 341.789L592.263 294.561C592.176 294.324 592.152 294.068 592.194 293.819C592.236 293.57 592.342 293.337 592.503 293.141C592.663 292.946 592.871 292.796 593.107 292.706C593.344 292.616 593.599 292.59 593.849 292.629L607.626 291.711Z" fill="#ED4F4B"/>
<path d="M604.09 305.441C604.542 305.295 604.519 303.979 604.039 302.502C603.559 301.025 602.804 299.947 602.352 300.094C601.9 300.24 601.922 301.556 602.402 303.033C602.882 304.51 603.638 305.588 604.09 305.441Z" fill="white"/>
</g>
<path d="M603.203 326.587C602.971 326.44 602.779 326.236 602.646 325.995C602.514 325.754 602.444 325.483 602.443 325.208C602.443 324.932 602.512 324.662 602.644 324.42C602.776 324.179 602.966 323.974 603.198 323.826C603.429 323.677 603.694 323.589 603.969 323.57C604.243 323.551 604.518 323.601 604.768 323.716L615.882 328.792L627.376 329.903L622.653 325.328C622.427 325.111 622.271 324.832 622.205 324.525C622.14 324.219 622.168 323.9 622.285 323.61C622.403 323.32 622.605 323.071 622.865 322.897C623.126 322.723 623.432 322.631 623.746 322.633C624.018 322.631 624.287 322.701 624.524 322.837L636.564 329.69C638.311 330.686 640.226 331.355 642.214 331.663L653.143 333.339L648.021 345.694L633.582 343.138L612.492 341.471C611.43 341.387 610.403 341.047 609.501 340.479C608.6 339.911 607.849 339.133 607.315 338.211L605.129 334.45C604.948 334.135 604.871 333.771 604.908 333.409C604.945 333.048 605.095 332.707 605.337 332.435C605.579 332.164 605.9 331.975 606.255 331.896C606.61 331.818 606.981 331.852 607.315 331.996L603.203 326.587Z" fill="url(#paint3_linear_4302_27453)"/>
<path d="M718.068 290.471L710.316 333.666L652.439 326.526L643.381 344.91L716.392 361.432C718.14 361.827 719.948 361.871 721.713 361.562C723.478 361.252 725.164 360.596 726.674 359.63C728.183 358.664 729.486 357.409 730.506 355.936C731.527 354.463 732.245 352.802 732.619 351.05L745.298 295.426C746.062 291.842 745.374 288.102 743.384 285.026C741.394 281.949 738.266 279.787 734.684 279.014C732.836 278.622 730.928 278.61 729.075 278.98C727.223 279.35 725.465 280.094 723.91 281.166C722.355 282.238 721.035 283.617 720.03 285.216C719.026 286.816 718.358 288.604 718.068 290.471Z" fill="#EFF5FF"/>
<path fill-rule="evenodd" clip-rule="evenodd" d="M703.497 304.222C705.441 303.955 707.412 304.459 708.99 305.626L713.863 309.229C714.668 309.828 715.344 310.581 715.854 311.445C716.363 312.308 716.694 313.265 716.828 314.259C716.962 315.253 716.896 316.263 716.634 317.231C716.371 318.199 715.918 319.104 715.301 319.893C715.301 319.894 715.301 319.894 715.3 319.895L706.781 330.877C704.66 333.611 701.659 335.529 698.286 336.305L696.758 336.657L696.493 335.504L698.021 335.152C701.128 334.437 703.892 332.671 705.846 330.152L714.367 319.168L714.368 319.166C714.889 318.5 715.271 317.737 715.492 316.922C715.713 316.106 715.769 315.255 715.656 314.417C715.543 313.58 715.264 312.773 714.835 312.045C714.406 311.318 713.836 310.683 713.158 310.179C713.158 310.179 713.157 310.179 713.157 310.179L708.287 306.577C708.287 306.577 708.287 306.577 708.287 306.577C706.957 305.594 705.296 305.169 703.658 305.394C702.02 305.619 700.534 306.475 699.519 307.78L691.887 317.578C690.661 319.15 689.788 320.968 689.329 322.908C689.329 322.908 689.329 322.908 689.329 322.908L688.319 327.168L687.168 326.896L688.178 322.635C688.676 320.53 689.624 318.557 690.954 316.851L698.585 307.053C698.586 307.053 698.585 307.053 698.585 307.053C699.791 305.505 701.553 304.489 703.497 304.222Z" fill="#323333"/>
<path d="M695.398 337.874L697.483 337.606C698.006 337.539 698.375 337.061 698.308 336.538L698.148 335.289C698.081 334.766 697.602 334.397 697.08 334.464L694.995 334.732C694.472 334.799 694.103 335.277 694.17 335.8L694.33 337.049C694.398 337.572 694.876 337.941 695.398 337.874Z" fill="#D9F8FF"/>
<path d="M688.895 328.433L689.399 326.622C689.54 326.115 689.243 325.589 688.735 325.447L687.691 325.157C687.184 325.016 686.658 325.313 686.516 325.82L686.012 327.631C685.871 328.139 686.168 328.665 686.676 328.806L687.72 329.097C688.227 329.238 688.753 328.941 688.895 328.433Z" fill="#D9F8FF"/>
<path fill-rule="evenodd" clip-rule="evenodd" d="M712.336 308.955C712.335 308.955 712.335 308.955 711.908 308.547C711.48 308.138 711.48 308.138 711.48 308.138L711.501 308.116C711.515 308.101 711.536 308.079 711.563 308.05C711.619 307.992 711.701 307.905 711.807 307.791C712.021 307.564 712.332 307.23 712.722 306.805C713.503 305.954 714.601 304.737 715.867 303.274C718.403 300.346 721.607 296.444 724.3 292.529C727.011 288.589 729.14 284.723 729.622 281.849C729.862 280.422 729.676 279.352 729.085 278.624C728.494 277.896 727.379 277.365 725.425 277.287L725.472 276.105C727.591 276.19 729.108 276.776 730.003 277.878C730.899 278.981 731.055 280.455 730.789 282.044C730.259 285.202 727.986 289.259 725.275 293.2C722.546 297.166 719.31 301.105 716.762 304.048C715.486 305.521 714.381 306.747 713.594 307.604C713.2 308.033 712.886 308.37 712.67 308.601C712.562 308.716 712.479 308.804 712.422 308.864C712.394 308.894 712.372 308.916 712.358 308.932L712.341 308.949L712.336 308.955Z" fill="#323333"/>
<path fill-rule="evenodd" clip-rule="evenodd" d="M708.283 276.405C707.795 276.463 707.325 276.622 706.903 276.873L706.878 276.888L706.851 276.9C700.828 279.707 695.609 286.341 691.869 292.375C690.009 295.377 688.531 298.202 687.519 300.276C687.013 301.313 686.624 302.161 686.362 302.75C686.231 303.044 686.131 303.273 686.065 303.428C686.032 303.505 686.007 303.564 685.99 303.603L685.972 303.647L685.967 303.658L685.966 303.661C685.966 303.661 685.966 303.661 685.803 303.594L685.419 303.435C684.873 303.21 684.873 303.209 684.873 303.209L684.875 303.205L684.88 303.192L684.9 303.145C684.917 303.103 684.943 303.042 684.978 302.962C685.046 302.802 685.148 302.568 685.282 302.268C685.549 301.669 685.944 300.808 686.456 299.758C687.481 297.658 688.977 294.796 690.864 291.752C694.614 285.701 699.977 278.81 706.326 275.84C706.883 275.514 707.502 275.307 708.143 275.23L708.283 276.405Z" fill="#323333"/>
<path d="M684.549 309.899C686.57 309.899 688.208 308.261 688.208 306.24C688.208 304.22 686.57 302.582 684.549 302.582C682.529 302.582 680.891 304.22 680.891 306.24C680.891 308.261 682.529 309.899 684.549 309.899Z" fill="#EEF7FF"/>
<path d="M684.549 309.028C686.089 309.028 687.337 307.78 687.337 306.241C687.337 304.701 686.089 303.453 684.549 303.453C683.01 303.453 681.762 304.701 681.762 306.241C681.762 307.78 683.01 309.028 684.549 309.028Z" fill="#A7C3DB"/>
<path d="M695.663 231.195L699.368 229.973C702.898 228.807 706.746 229.091 710.067 230.762C713.387 232.432 715.909 235.353 717.077 238.882L721.791 253.135C721.921 253.534 722.022 253.932 722.115 254.33H722.18L725.949 278.151L707.426 290.45L708.25 275.307L708.306 272.334C701.211 274.187 695.339 274.863 691.468 263.175L690.912 261.489L686.707 261.332L687.318 250.616C684.883 243.235 688.309 233.603 695.663 231.195Z" fill="url(#paint4_linear_4302_27453)"/>
<path d="M713.908 251.449L713.677 246.393C713.651 245.88 713.507 245.381 713.257 244.933C713.007 244.485 712.656 244.101 712.233 243.811C711.81 243.52 711.326 243.331 710.818 243.259C710.31 243.186 709.792 243.232 709.305 243.392L708.536 243.651C708.205 243.76 707.899 243.934 707.635 244.161C707.37 244.389 707.154 244.666 706.997 244.978C706.841 245.289 706.747 245.629 706.722 245.976C706.697 246.324 706.74 246.673 706.851 247.004L708.564 252.19L704.192 246.717C702.354 244.428 699.932 242.677 697.181 241.651L692.495 239.9L698.052 245.337C698.052 245.337 688.79 247.782 684.159 242.651L681.584 239.873C680.31 238.487 679.596 236.676 679.582 234.793C679.569 232.91 680.256 231.089 681.51 229.685L684.15 226.74C687.56 222.931 692.025 220.22 696.977 218.951L707.24 216.312C710.054 215.591 713.013 215.671 715.784 216.543C718.555 217.415 721.026 219.045 722.92 221.248C724.571 223.174 725.774 225.442 726.442 227.889C727.11 230.337 727.226 232.902 726.782 235.399L722.975 256.803L713.908 251.449Z" fill="#323333"/>
<path d="M715.511 268.27L708.296 272.289L708.203 279.744L715.511 268.27Z" fill="url(#paint5_linear_4302_27453)"/>
<path d="M682.049 344.992H453.022C451.641 344.992 450.521 346.112 450.521 347.493V352.753C450.521 354.134 451.641 355.254 453.022 355.254H682.049C683.43 355.254 684.549 354.134 684.549 352.753V347.493C684.549 346.112 683.43 344.992 682.049 344.992Z" fill="#52787C"/>
<path d="M669.016 512.289H661.218L586.512 350.121H594.31L669.016 512.289Z" fill="#52787C"/>
<path d="M464.154 512.289H471.953L546.659 350.121H538.86L464.154 512.289Z" fill="#52787C"/>
<g opacity="0.63">
<path opacity="0.63" d="M555.419 324.441C555.419 324.441 550.205 313.633 553.567 308.317C556.929 303.001 560.421 293.703 560.569 290.785C560.569 290.785 568.275 299.037 567.441 304.177C566.608 309.317 558.402 315.847 561.662 321.83C564.922 327.812 555.419 324.441 555.419 324.441Z" fill="url(#paint6_linear_4302_27453)"/>
</g>
<path d="M546.832 319.402H572.422V337.925C572.422 339.804 571.676 341.606 570.347 342.935C569.018 344.264 567.216 345.01 565.337 345.01H553.927C552.047 345.01 550.245 344.264 548.917 342.935C547.588 341.606 546.841 339.804 546.841 337.925V319.402H546.832Z" fill="#99E1EE"/>
<path d="M572.432 338.471V334.6C573.613 334.6 574.746 334.13 575.582 333.295C576.417 332.459 576.887 331.326 576.887 330.145C576.887 328.963 576.417 327.83 575.582 326.995C574.746 326.159 573.613 325.69 572.432 325.69V321.828C574.642 321.828 576.763 322.706 578.326 324.269C579.889 325.833 580.767 327.953 580.767 330.163C580.767 332.374 579.889 334.494 578.326 336.057C576.763 337.621 574.642 338.499 572.432 338.499V338.471Z" fill="#99E1EE"/>
<path d="M547.375 130.678L553.186 129.543H554.364C554.639 129.544 554.91 129.605 555.16 129.72C555.41 129.835 555.633 130.003 555.814 130.213C555.995 130.422 556.13 130.668 556.21 130.934C556.291 131.2 556.314 131.48 556.279 131.756C556.135 132.86 555.718 133.91 555.067 134.808C554.416 135.706 553.553 136.424 552.556 136.895L540.918 143.343L547.375 130.678Z" fill="#FFA37B"/>
<path d="M479.364 129.694V170.962L492.652 242.115L409.838 242.008L422.058 191.853C422.058 191.853 424.541 163.45 424.541 162.954C424.541 162.457 423.639 130.53 423.639 130.53L440.658 126.393L462.088 126.145L479.364 129.694Z" fill="white"/>
<path d="M417.053 212.274L425.252 215.724L431.482 191.102L417.053 212.274Z" fill="#C7E7FF"/>
<path d="M423.564 130.52C423.564 130.52 417.557 133.167 415.124 135.144C413.469 136.46 399.338 161.81 390.145 178.548C389.147 180.367 388.517 182.366 388.291 184.429C388.065 186.492 388.248 188.58 388.83 190.572C389.412 192.565 390.381 194.423 391.681 196.041C392.981 197.659 394.588 199.004 396.409 200.001C396.632 200.117 396.855 200.241 397.087 200.349L423.564 213.264L431.548 191.09L416.349 182.883L427.783 163.026L423.564 130.536" fill="white"/>
<path d="M423.497 213.274L413.643 212.538V204.281L428.039 200.648L423.497 213.274Z" fill="white"/>
<path d="M413.727 182.554C415.337 182.766 416.966 182.796 418.583 182.645C420.208 182.488 421.732 181.788 422.911 180.659C424.466 179.004 424.847 176.655 425.169 174.437L426.824 162.945C422.935 163.177 419.675 166.205 417.996 169.713C416.316 173.221 415.944 177.159 415.588 181.056" fill="white"/>
<path d="M479.362 129.695L497.937 171.891L509.876 155.509C509.876 155.509 522.039 161.482 520.575 178.832L506.12 198.474C504.608 199.672 502.855 200.529 500.982 200.988C499.108 201.446 497.157 201.494 495.263 201.129C493.369 200.763 491.576 199.993 490.007 198.871C488.438 197.749 487.129 196.301 486.172 194.626L473.182 171.891L479.362 129.695Z" fill="white"/>
<path d="M444.562 143.468L450.503 165.534L444.562 242.13H469.095L461.648 166.725L464.817 140.597L458.703 137.312L444.562 143.468Z" fill="#FF6961"/>
<path d="M432.515 128.354C432.325 128.354 455.682 145.025 455.682 145.025L464.841 126.675C464.841 126.675 448.128 122.753 432.515 128.354Z" fill="#FFBE9D"/>
<path d="M447.5 69.3213L451.058 68.3863C453.259 67.559 458.802 68.163 461.061 68.8166C464.701 69.8673 468.714 71.7371 470.402 73.9048L472.512 77.5452C474.647 82.2115 474.796 86.7289 474.324 91.8337L474.729 113.734V118.764C474.73 120.804 474.935 122.838 475.342 124.837L477.046 141.334L486.147 166.85L472.545 169.026L458.678 137.305L447.5 69.3213Z" fill="#00B5D5"/>
<path d="M460.45 117.663C460.45 117.663 454.832 118.126 447.799 113.898C447.799 113.898 450.016 121.345 460.574 120.335L460.45 117.663Z" fill="#EB996E"/>
<path d="M441.791 173.682L438.664 212.51C438.602 213.29 438.85 214.064 439.355 214.662C439.86 215.26 440.581 215.634 441.361 215.704H441.7L470.775 214.876C471.495 214.856 472.183 214.575 472.712 214.085C473.24 213.594 473.572 212.929 473.646 212.212L477.634 174.154C477.674 173.766 477.637 173.375 477.526 173.002C477.414 172.629 477.23 172.281 476.984 171.979C476.738 171.677 476.435 171.426 476.093 171.242C475.75 171.057 475.374 170.942 474.986 170.902H474.688H444.737C443.984 170.903 443.26 171.191 442.712 171.708C442.165 172.225 441.835 172.931 441.791 173.682Z" fill="#506A72"/>
<path d="M461.648 177.093C461.648 177.439 461.545 177.776 461.354 178.063C461.162 178.35 460.889 178.574 460.57 178.706C460.251 178.838 459.9 178.873 459.561 178.806C459.223 178.738 458.912 178.572 458.668 178.328C458.423 178.084 458.257 177.773 458.19 177.434C458.122 177.095 458.157 176.744 458.289 176.425C458.421 176.106 458.645 175.834 458.932 175.642C459.219 175.45 459.557 175.348 459.902 175.348C460.132 175.347 460.359 175.391 460.571 175.478C460.784 175.566 460.977 175.694 461.139 175.857C461.301 176.019 461.43 176.212 461.517 176.424C461.604 176.636 461.649 176.864 461.648 177.093Z" fill="#FAFAFA"/>
<path d="M454.906 203.636L461.69 197.612C462.733 196.33 463.941 196.148 463.262 194.866C462.584 193.583 457.33 194.344 455.559 194.344C453.616 194.47 451.682 194.713 449.768 195.072C449.768 195.072 457.661 192.301 458.224 191.978C459.804 191.151 458.157 189.38 456.023 189.885C454.12 190.34 447.004 192.88 445.738 192.698C444.472 192.516 441.229 192.144 441.229 192.144L441.32 188.445C441.32 188.445 437.34 189.571 436.637 190.365C435.607 191.151 434.498 191.828 433.327 192.384L430.341 193.211L426.195 205.803L447.079 206.473C449.954 206.558 452.753 205.543 454.906 203.636Z" fill="#FFBE9D"/>
<path d="M458.207 76.0805C458.207 76.0805 464.214 71.1164 469.095 77.5449C469.095 77.5449 467.126 73.7556 464.478 72.3822C462.376 71.4479 460.144 70.8371 457.859 70.5703L458.207 76.0805Z" fill="#0194AE"/>
<path d="M460.466 126.822C460.391 132.762 456.386 137.478 450.454 137.478C444.522 137.478 440.583 132.349 440.525 126.375L460.027 117.68L460.466 126.822Z" fill="url(#paint7_linear_4302_27453)"/>
<path d="M455.981 74.1517H456.461C460.398 74.4433 464.076 76.2198 466.752 79.1215C469.428 82.0233 470.902 85.8334 470.874 89.7805C471.087 91.6665 471.477 93.5281 472.041 95.3404L474.085 100.867L470.494 102.522C470.427 103.531 470.494 105.715 470.378 106.733C469.153 114.461 464.172 116.81 462.211 117.489C461.517 117.631 460.81 117.703 460.102 117.704L440.418 126.375V89.0938C440.458 87.0906 440.892 85.1148 441.696 83.2794C442.5 81.4441 443.657 79.7852 445.103 78.3975C446.548 77.0098 448.253 75.9206 450.119 75.192C451.986 74.4635 453.978 74.11 455.981 74.1517Z" fill="url(#paint8_linear_4302_27453)"/>
<path d="M469.096 79.712C469.096 79.712 458.737 88.9702 455.667 91.9238C452.598 94.8775 456.66 116.662 462.204 117.415C467.747 118.168 458.207 147.506 458.207 147.506L451.158 147.092C441.588 146.529 432.589 142.353 425.98 135.41L422.059 131.232C422.059 131.232 433.468 87.3817 435.992 80.1092C436.84 77.4744 438.35 75.1017 440.379 73.2183C442.407 71.335 444.885 70.0042 447.575 69.3535C451.059 68.3855 464.206 73.0601 469.096 79.712Z" fill="#00B5D5"/>
<path d="M463.799 120.336C463.799 120.336 449.684 122.71 447.053 108.579C447.053 108.579 444.248 103.242 444.571 108.579C444.893 113.915 445.63 123.248 463.799 120.336Z" fill="#0194AE"/>
<path d="M462.153 122.488C462.153 122.488 451.761 126.344 447.798 124.59C443.835 122.836 462.153 122.488 462.153 122.488Z" fill="#0194AE"/>
<path d="M425.252 149.676L420.842 182.05L422.91 180.669L425.252 149.676Z" fill="#C7E7FF"/>
<path d="M512.137 162.98L529.674 145.131L554.256 122.98C554.331 122.915 554.423 122.87 554.522 122.85C554.62 122.831 554.722 122.838 554.817 122.871C554.912 122.904 554.997 122.961 555.062 123.037C555.127 123.112 555.171 123.204 555.189 123.302C555.353 124.25 555.164 125.226 554.656 126.046L544.405 142.642L553.931 139.346C554.316 139.441 554.665 139.643 554.937 139.928C555.21 140.213 555.395 140.569 555.47 140.954C555.545 141.339 555.508 141.738 555.362 142.102C555.216 142.467 554.968 142.783 554.647 143.013L542.465 151.773L514.094 184.348L512.137 162.98Z" fill="url(#paint9_linear_4302_27453)"/>
<path d="M720.078 197.438H723.088C724.36 197.439 725.619 197.189 726.794 196.704C727.97 196.218 729.038 195.505 729.938 194.606C730.837 193.707 731.551 192.64 732.038 191.465C732.525 190.29 732.776 189.031 732.776 187.759V88.875C732.776 87.6028 732.525 86.3431 732.038 85.1677C731.551 83.9924 730.838 82.9245 729.938 82.0249C729.038 81.1253 727.971 80.4118 726.795 79.9249C725.62 79.4381 724.36 79.1875 723.088 79.1875H581.141C578.572 79.1875 576.107 80.2081 574.291 82.0249C572.474 83.8416 571.453 86.3057 571.453 88.875V187.759C571.453 189.031 571.704 190.29 572.191 191.465C572.678 192.64 573.391 193.707 574.291 194.606C575.191 195.505 576.259 196.218 577.434 196.704C578.61 197.189 579.869 197.439 581.141 197.438H720.068H720.078Z" fill="white"/>
<path d="M720.078 197.438H723.088C724.36 197.439 725.619 197.189 726.794 196.704C727.97 196.218 729.038 195.505 729.938 194.606C730.837 193.707 731.551 192.64 732.038 191.465C732.525 190.29 732.776 189.031 732.776 187.759V88.875C732.776 87.6028 732.525 86.3431 732.038 85.1677C731.551 83.9924 730.838 82.9245 729.938 82.0249C729.038 81.1253 727.971 80.4118 726.795 79.9249C725.62 79.4381 724.36 79.1875 723.088 79.1875H581.141C578.572 79.1875 576.107 80.2081 574.291 82.0249C572.474 83.8416 571.453 86.3057 571.453 88.875V187.759C571.453 189.031 571.704 190.29 572.191 191.465C572.678 192.64 573.391 193.707 574.291 194.606C575.191 195.505 576.259 196.218 577.434 196.704C578.61 197.189 579.869 197.439 581.141 197.438H720.068H720.078Z" fill="url(#paint10_linear_4302_27453)"/>
<g opacity="0.98">
<path opacity="0.76" d="M646.512 160.041C646.27 160.619 646.205 161.255 646.323 161.869C646.442 162.484 646.739 163.05 647.179 163.496C648.076 164.373 649.158 165.037 650.346 165.441C654.051 166.969 653.754 169.331 654.866 172.794C656.237 177.055 662.053 180.528 665.693 182.76C668.805 184.668 668.471 179.74 668.703 177.897C669.103 174.512 669.081 171.09 668.638 167.71C668.516 166.114 667.894 164.597 666.86 163.375C665.239 161.764 662.572 161.625 660.914 160.041C660.108 159.263 659.562 158.189 658.552 157.689C657.966 157.448 657.332 157.343 656.7 157.383C652.961 157.373 649.298 158.441 646.15 160.458L645.9 159.884L646.512 160.041Z" fill="white"/>
<path opacity="0.76" d="M659.19 157.42C659.707 158.659 660.509 159.758 661.531 160.629C662.553 161.499 663.766 162.117 665.071 162.431C665.685 162.497 666.277 162.7 666.803 163.024C667.134 163.318 667.404 163.673 667.599 164.07C669.6 167.525 672.147 171.174 676.028 172.072C680.547 173.109 685.289 169.701 686.799 165.339C687.018 164.471 687.385 163.647 687.883 162.903C688.593 162.211 689.413 161.641 690.309 161.218C691.517 160.459 692.533 159.431 693.279 158.215C694.024 156.999 694.479 155.627 694.607 154.207C693.403 154.177 692.214 153.932 691.097 153.484C690.588 154.218 689.927 154.832 689.157 155.285C688.388 155.737 687.53 156.017 686.642 156.105C684.866 156.272 683.075 156.207 681.316 155.911C674.166 155.059 666.71 154.929 660.014 157.55C659.347 157.8 658.717 158.856 659.412 159.004L659.19 157.42Z" fill="white"/>
<path opacity="0.76" d="M701.897 129.181C701.906 129.123 701.906 129.063 701.897 129.005C702.295 126.301 702.897 122.439 701.258 120.04C700.424 118.827 699.276 118.299 698.479 116.975C697.683 115.65 697.683 114.196 696.905 112.807C696.127 111.418 694.978 111.019 693.95 110.028C692.357 108.5 691.912 106.537 690.829 104.722C688.745 101.286 686.105 101.119 683.114 98.7758C680.409 96.6549 679.252 93.7839 676.093 92.1168C672.388 90.1626 667.878 89.1439 663.784 88.2548C657.347 86.847 651.837 86.7174 646.826 89.8015C646.762 89.6899 646.673 89.5948 646.567 89.5236C646.446 89.4403 646.316 89.3847 646.196 89.3106C645.927 89.1624 645.668 89.0235 645.4 88.8938C644.854 88.6156 644.294 88.3652 643.723 88.1437C642.589 87.6848 641.394 87.3916 640.176 87.2731C639.219 87.1922 638.255 87.2704 637.323 87.5046C634.767 88.1807 632.905 90.2182 631.312 92.2279C631.311 92.1959 631.3 92.165 631.28 92.14C631.26 92.1149 631.232 92.097 631.201 92.089C626.99 91.0382 622.557 91.3066 618.503 92.8577C613.483 94.7841 610.353 98.711 605.926 101.462C599.859 105.25 595.617 110.603 594.589 117.752C592.57 119.549 590.088 124.124 590.884 127.107C589.477 128.894 588.504 131.098 589.514 133.321C590.585 135.462 592.338 137.186 594.497 138.22C594.475 138.264 594.464 138.311 594.464 138.359C594.464 138.407 594.475 138.455 594.497 138.498C595.589 142.073 597.034 145.102 600.452 146.954C603.342 148.519 607.935 149.584 611.159 148.889C612.095 150.077 613.28 151.045 614.632 151.723C614.582 151.797 614.559 151.885 614.567 151.974C615.169 160.355 625.431 161.652 631.636 159.281C631.784 159.23 631.909 159.128 631.988 158.994C631.136 160.355 641.158 161.244 641.945 161.133C645.362 160.679 648.623 159.281 652.022 158.586C659.681 157.04 667.545 156.827 675.343 156.614L685.531 156.336C688.106 156.271 691.301 155.771 692.098 153.326C691.977 153.687 698.729 153.205 699.618 152.659C701.739 151.353 703.647 147.926 703.017 145.426C707.389 141.777 706 132.524 701.897 129.181Z" fill="white"/>
<path opacity="0.98" d="M591.162 127.19C589.754 128.978 588.781 131.182 589.791 133.405C590.899 135.645 592.762 137.422 595.052 138.424C595.104 138.438 595.159 138.432 595.207 138.407C595.254 138.383 595.292 138.343 595.312 138.293C595.333 138.243 595.334 138.188 595.317 138.137C595.3 138.087 595.265 138.044 595.218 138.017C593.557 137.094 592.109 135.831 590.967 134.312C589.115 131.978 589.856 129.561 591.291 127.283C591.347 127.19 591.227 127.098 591.162 127.181V127.19Z" fill="#FFA2A2"/>
<path opacity="0.98" d="M594.746 138.581C595.839 142.156 597.283 145.184 600.701 147.036C603.6 148.611 608.212 149.676 611.435 148.972C611.936 148.861 612.139 148.101 611.574 147.907C608.796 146.981 605.712 147.361 602.868 146.332C599.164 144.98 596.848 141.85 595.338 138.321C595.172 137.932 594.625 138.192 594.746 138.581Z" fill="#FFA2A2"/>
<path opacity="0.98" d="M617.772 136.524C614.771 139.367 611.603 144.1 611.038 148.276C611.024 148.385 611.039 148.495 611.082 148.596C611.125 148.697 611.193 148.785 611.281 148.851C611.368 148.917 611.471 148.958 611.58 148.971C611.689 148.984 611.799 148.968 611.9 148.925C611.985 148.889 612.061 148.834 612.121 148.764C612.182 148.694 612.226 148.611 612.249 148.521C612.272 148.432 612.275 148.338 612.256 148.247C612.237 148.157 612.197 148.071 612.14 147.999L612.038 147.887C611.992 147.829 611.932 147.783 611.865 147.75C611.798 147.718 611.724 147.702 611.649 147.702C611.575 147.702 611.501 147.718 611.434 147.75C611.367 147.783 611.307 147.829 611.26 147.887L611.186 147.999L611.89 147.804L612.224 148.61C612.692 146.552 613.369 144.548 614.243 142.627C615.315 140.566 616.587 138.614 618.04 136.801C618.161 136.635 617.929 136.385 617.772 136.542V136.524Z" fill="#FFA2A2"/>
<path opacity="0.98" d="M611.381 148.937C612.345 150.178 613.58 151.182 614.993 151.873C615.502 152.132 615.974 151.317 615.493 151.002C614.826 150.576 614.122 150.224 613.465 149.789C612.873 149.369 612.254 148.989 611.612 148.65C611.427 148.557 611.288 148.798 611.39 148.937H611.381Z" fill="#FFA2A2"/>
<path opacity="0.98" d="M614.817 152.046C615.419 160.437 625.681 161.734 631.896 159.363C632.822 159.011 632.211 157.622 631.285 157.955C624.802 160.298 617.948 158.881 615.54 151.852C615.392 151.426 614.79 151.648 614.817 152.046Z" fill="#FFA2A2"/>
<path opacity="0.98" d="M689.578 149.604C690.312 150.636 690.671 151.887 690.597 153.151C690.541 154.161 689.791 155.003 689.893 155.985C689.906 156.087 689.943 156.185 690.001 156.27C690.059 156.354 690.137 156.424 690.228 156.472C690.319 156.52 690.42 156.546 690.523 156.546C690.626 156.547 690.728 156.523 690.819 156.476C692.097 156.059 692.264 153.929 692.144 152.771C692.058 152.06 691.815 151.376 691.432 150.771C691.05 150.165 690.536 149.653 689.93 149.271C689.887 149.24 689.834 149.226 689.782 149.231C689.729 149.236 689.68 149.26 689.643 149.298C689.607 149.336 689.584 149.386 689.581 149.438C689.578 149.491 689.593 149.543 689.624 149.585L689.578 149.604Z" fill="#FFA2A2"/>
<path opacity="0.98" d="M691.969 153.278C691.969 155.936 697.989 153.973 699.11 153.278C701.62 151.759 704.583 147.647 702.99 144.647C702.965 144.591 702.925 144.544 702.874 144.511C702.823 144.478 702.764 144.461 702.703 144.461C702.643 144.461 702.583 144.478 702.532 144.511C702.481 144.544 702.441 144.591 702.416 144.647C701.434 147.008 701.61 149.342 699.536 151.241C698.697 151.991 697.713 152.561 696.646 152.917C695.84 153.195 693.034 154.038 692.358 153.158C692.256 153.028 691.978 153.074 691.969 153.26V153.278Z" fill="#FFA2A2"/>
<path opacity="0.98" d="M702.944 145.825C707.825 142.352 706.389 132.516 702.092 129.154C701.518 128.7 700.916 129.46 701.258 130.006C702.731 132.424 704.148 134.294 704.444 137.202C704.838 140.061 704.103 142.961 702.397 145.288C702.11 145.64 702.592 146.066 702.944 145.825Z" fill="#FFA2A2"/>
<path opacity="0.98" d="M643.761 92.933C649.818 86.9409 656.95 87.0891 664.878 88.9599C668.527 89.8305 672.824 90.8122 676.149 92.6645C679.474 94.5168 680.567 97.5916 683.559 99.6198C686.337 101.518 689.116 102.537 690.866 105.751C691.621 107.311 692.491 108.812 693.469 110.243C693.89 110.641 694.352 110.992 694.849 111.289C696.257 112.703 697.176 114.53 697.47 116.503C698.063 117.606 697.396 116.911 697.989 117.791C698.396 118.393 699.1 118.634 699.573 119.143C702.351 122.162 701.99 125.552 701.777 129.256C701.779 129.3 701.797 129.341 701.826 129.372C701.856 129.404 701.895 129.424 701.938 129.43C701.981 129.435 702.025 129.425 702.061 129.402C702.098 129.379 702.125 129.344 702.138 129.303C702.527 126.58 703.222 122.551 701.536 120.041C700.702 118.828 699.554 118.3 698.757 116.976C697.961 115.651 697.961 114.197 697.183 112.808C696.405 111.419 695.257 111.021 694.228 110.03C692.635 108.502 692.191 106.538 691.107 104.723C689.023 101.287 686.384 101.12 683.392 98.777C680.688 96.6561 679.53 93.7851 676.372 92.118C672.667 90.1639 668.156 89.1451 664.072 88.256C656.098 86.5056 649.503 86.6723 643.603 92.6645C643.492 92.7849 643.603 92.9886 643.77 92.8682L643.761 92.933Z" fill="#FFA2A2"/>
<path opacity="0.98" d="M646.919 89.6068C644.205 88.0323 640.815 86.7357 637.657 87.5692C634.943 88.2824 633.026 90.5422 631.349 92.663C631.081 93.0057 631.609 93.4039 631.887 93.0705C633.572 91.0423 635.239 88.9955 637.888 88.2638C641.056 87.4025 643.844 88.8844 646.743 89.9309C646.928 89.9957 647.122 89.7179 646.928 89.6068H646.919Z" fill="#FFA2A2"/>
<path opacity="0.98" d="M631.525 92.1535C627.314 91.1027 622.881 91.3711 618.828 92.9222C613.808 94.8486 610.705 98.7569 606.25 101.535C600.146 105.333 595.886 110.723 594.886 117.937C594.873 118.036 594.901 118.135 594.962 118.213C595.022 118.291 595.112 118.342 595.21 118.354C595.308 118.366 595.407 118.339 595.485 118.278C595.564 118.218 595.614 118.128 595.627 118.03C596.988 110.13 601.443 105.638 607.926 101.461C611.409 99.22 613.817 96.0063 617.651 94.1818C622.097 92.0517 626.691 91.7831 631.498 92.4499C631.517 92.4529 631.537 92.4521 631.556 92.4475C631.575 92.4428 631.593 92.4345 631.609 92.4229C631.625 92.4113 631.639 92.3966 631.649 92.3798C631.659 92.363 631.666 92.3443 631.669 92.3249C631.672 92.3054 631.671 92.2855 631.667 92.2664C631.662 92.2473 631.654 92.2292 631.642 92.2133C631.63 92.1974 631.616 92.1839 631.599 92.1737C631.582 92.1634 631.563 92.1566 631.544 92.1535H631.525Z" fill="#FFA2A2"/>
<path opacity="0.98" d="M594.238 129.533C589.051 127.18 593.034 120.948 595.544 118.197C595.822 117.9 595.349 117.447 595.044 117.706C592.163 120.114 588.153 128.514 594.182 129.746C594.312 129.746 594.349 129.57 594.238 129.524V129.533Z" fill="#FFA2A2"/>
<path opacity="0.98" d="M665.239 124.254C660.608 121.985 655.375 122.402 650.54 123.652C646.048 124.856 640.408 126.431 637.416 130.2C636.916 130.839 637.861 131.821 638.463 131.219C644.798 124.829 656.69 122.143 665.054 124.736C665.108 124.748 665.166 124.74 665.215 124.715C665.265 124.689 665.304 124.647 665.326 124.595C665.348 124.543 665.352 124.486 665.336 124.432C665.32 124.378 665.286 124.332 665.239 124.301V124.254Z" fill="#FFA2A2"/>
<path opacity="0.98" d="M640.036 136.211C640.284 135.625 640.411 134.995 640.411 134.359C640.411 133.722 640.284 133.093 640.036 132.506C639.629 131.58 638.869 129.997 637.665 130.098C637.604 130.107 637.545 130.129 637.491 130.161C637.438 130.192 637.392 130.235 637.355 130.284C637.318 130.334 637.291 130.391 637.276 130.451C637.261 130.512 637.258 130.574 637.267 130.636C637.489 131.562 638.508 131.941 638.971 132.784C639.515 133.816 639.78 134.971 639.74 136.137C639.73 136.175 639.736 136.215 639.756 136.249C639.776 136.283 639.808 136.308 639.846 136.317C639.884 136.327 639.925 136.322 639.959 136.302C639.993 136.282 640.017 136.249 640.027 136.211H640.036Z" fill="#FFA2A2"/>
<path opacity="0.98" d="M618.401 136.876C621.624 130.133 631.858 127.327 637.999 131.634C638.925 132.273 639.944 130.911 639.036 130.245C631.969 125.04 620.985 128.8 617.373 136.459C617.067 137.107 618.095 137.515 618.401 136.876Z" fill="#FFA2A2"/>
<path opacity="0.98" d="M626.645 146.916C625.557 147.954 624.789 149.281 624.431 150.741C624.107 151.973 623.737 154.048 624.607 155.113C624.639 155.152 624.68 155.182 624.727 155.2C624.774 155.219 624.824 155.224 624.874 155.217C624.924 155.209 624.971 155.189 625.01 155.158C625.049 155.126 625.08 155.085 625.098 155.039C625.45 153.946 625.098 152.714 625.283 151.547C625.595 150.037 626.199 148.602 627.062 147.324C627.219 147.055 626.904 146.666 626.645 146.916Z" fill="#FFA2A2"/>
<path opacity="0.98" d="M624.301 155.132C625.166 155.893 626.187 156.456 627.293 156.781C628.163 157.059 629.358 157.466 630.22 157.068C630.273 157.044 630.318 157.005 630.35 156.955C630.381 156.906 630.398 156.849 630.398 156.79C630.398 156.732 630.381 156.674 630.35 156.625C630.318 156.576 630.273 156.537 630.22 156.512C629.395 156.086 628.219 156.207 627.302 155.92C626.358 155.586 625.45 155.161 624.588 154.651C624.292 154.493 624.107 154.929 624.311 155.132H624.301Z" fill="#FFA2A2"/>
<path opacity="0.98" d="M622.746 145.593C628.044 149.14 633.795 147.112 638.296 143.296C638.695 142.953 638.296 142.194 637.806 142.463C635.472 143.704 633.554 145.574 630.905 146.167C628.226 146.746 625.429 146.383 622.987 145.139C622.737 145.028 622.514 145.408 622.746 145.556V145.593Z" fill="#FFA2A2"/>
<path opacity="0.98" d="M635.527 136.47C636.317 137.419 636.921 138.51 637.305 139.684C637.685 140.879 637.555 142.092 637.842 143.287C637.848 143.333 637.869 143.376 637.902 143.409C637.935 143.443 637.978 143.464 638.025 143.47C638.071 143.477 638.118 143.468 638.159 143.444C638.2 143.421 638.232 143.385 638.25 143.342C639.176 140.99 637.463 137.85 635.897 136.183C635.694 135.97 635.342 136.239 635.527 136.47Z" fill="#FFA2A2"/>
<path opacity="0.98" d="M637.758 143.406C642.481 144.989 649.27 142.813 651.993 138.497C652.059 138.407 652.093 138.298 652.091 138.186C652.089 138.075 652.05 137.967 651.98 137.88C651.911 137.793 651.815 137.73 651.707 137.703C651.599 137.676 651.485 137.685 651.382 137.728C649.372 138.553 647.825 140.284 645.825 141.275C643.405 142.555 640.642 143.031 637.934 142.637C637.834 142.616 637.73 142.635 637.644 142.688C637.557 142.742 637.494 142.826 637.468 142.925C637.442 143.023 637.455 143.128 637.504 143.217C637.552 143.307 637.633 143.374 637.73 143.406H637.758Z" fill="#FFA2A2"/>
<path opacity="0.98" d="M652.328 134.006C652.184 134.887 651.989 135.759 651.745 136.618C651.415 137.285 651.185 137.996 651.059 138.729C651.056 138.779 651.067 138.829 651.09 138.873C651.114 138.917 651.15 138.954 651.193 138.979C651.236 139.004 651.286 139.016 651.336 139.015C651.386 139.013 651.434 138.998 651.476 138.97C652.028 138.374 652.378 137.619 652.476 136.812C652.725 135.908 652.813 134.968 652.736 134.034C652.736 133.793 652.374 133.821 652.328 134.034V134.006Z" fill="#FFA2A2"/>
<path opacity="0.98" d="M651.587 138.655C654.736 140.053 658.542 139.581 661.895 139.322C665.053 139.053 668.295 138.59 670.759 136.45C671.268 136.015 670.759 135.015 670.12 135.385C664.386 138.673 657.996 137.877 651.642 138.164C651.392 138.164 651.383 138.534 651.587 138.627V138.655Z" fill="#FFA2A2"/>
<path opacity="0.98" d="M673.879 140.639C673.81 139.615 673.447 138.633 672.832 137.811C672.217 136.99 671.378 136.363 670.415 136.008C670.36 135.986 670.298 135.987 670.243 136.01C670.189 136.034 670.146 136.078 670.123 136.133C670.101 136.189 670.102 136.25 670.126 136.305C670.149 136.36 670.193 136.403 670.248 136.425C671.11 136.821 671.873 137.404 672.481 138.131C673.09 138.859 673.529 139.712 673.768 140.63C673.768 140.644 673.774 140.659 673.784 140.669C673.795 140.679 673.809 140.685 673.824 140.685C673.838 140.685 673.852 140.679 673.863 140.669C673.873 140.659 673.879 140.644 673.879 140.63V140.639Z" fill="#FFA2A2"/>
<path opacity="0.98" d="M654.689 147.842C662.098 152.353 670.517 150.408 677.843 146.74C678.649 146.333 678.103 145.036 677.278 145.434C669.637 149.232 663.08 149.732 654.883 147.518C654.698 147.463 654.494 147.722 654.698 147.842H654.689Z" fill="#FFA2A2"/>
<path opacity="0.98" d="M679.752 149.87C679.916 148.909 679.725 147.922 679.215 147.091C678.854 146.452 678.168 145.47 677.363 145.461C677.314 145.459 677.267 145.471 677.225 145.495C677.183 145.519 677.149 145.554 677.125 145.596C677.102 145.638 677.091 145.686 677.094 145.734C677.097 145.783 677.113 145.829 677.14 145.869C677.502 146.48 678.27 146.795 678.678 147.415C679.125 148.145 679.38 148.977 679.419 149.833C679.419 150.036 679.743 150.018 679.771 149.833L679.752 149.87Z" fill="#FFA2A2"/>
<path opacity="0.98" d="M682.466 147.74C685.67 146.648 689.653 144.249 691.014 140.961C691.079 140.822 690.894 140.655 690.774 140.776C689.533 141.98 688.588 143.415 687.236 144.545C685.758 145.756 684.118 146.753 682.364 147.509C682.206 147.574 682.308 147.787 682.466 147.74Z" fill="#FFA2A2"/>
<path opacity="0.98" d="M686.873 130.293C691.949 133.572 694.162 137.702 694.597 143.741C694.597 144.426 695.663 144.26 695.644 143.593C695.449 138.184 692.865 131.451 687.132 129.858C686.873 129.784 686.614 130.127 686.873 130.293Z" fill="#FFA2A2"/>
<path opacity="0.98" d="M692.801 135.126C696.098 134.931 701.136 132.996 702.174 129.439C702.313 128.958 701.794 128.439 701.34 128.809C700.09 129.81 699.247 131.199 697.941 132.171C696.394 133.308 694.596 134.055 692.699 134.348C692.596 134.361 692.502 134.415 692.439 134.498C692.375 134.58 692.347 134.685 692.361 134.788C692.374 134.891 692.428 134.985 692.511 135.048C692.593 135.111 692.698 135.139 692.801 135.126Z" fill="#FFA2A2"/>
<path opacity="0.98" d="M684.595 131.847C688.392 129.995 692.541 125.679 693.162 121.363C693.174 121.32 693.169 121.274 693.147 121.235C693.125 121.196 693.089 121.167 693.046 121.155C693.003 121.143 692.957 121.148 692.918 121.17C692.879 121.191 692.85 121.228 692.838 121.271C691.782 123.327 691.078 125.392 689.605 127.244C688.148 128.991 686.434 130.505 684.521 131.736C684.465 131.736 684.521 131.884 684.595 131.847Z" fill="#FFA2A2"/>
<path opacity="0.98" d="M680.399 103.879C686.975 103.879 691.374 111.409 691.513 117.188C691.513 117.818 692.588 117.809 692.616 117.188C692.94 111.372 687.114 102.166 680.362 103.564C680.196 103.564 680.168 103.898 680.362 103.889L680.399 103.879Z" fill="#FFA2A2"/>
<path opacity="0.98" d="M679.047 109.045C682.64 112.657 683.363 116.14 682.4 121.085C681.399 126.188 678.26 129.152 674.268 132.199C673.48 132.801 674.434 134.051 675.194 133.412C679.973 129.708 683.53 126.003 683.909 119.705C684.196 115.454 683.539 110.703 679.186 108.823C679.065 108.768 678.908 108.943 679.019 109.055L679.047 109.045Z" fill="#FFA2A2"/>
<path opacity="0.98" d="M664.868 113.918C664.452 117.198 662.976 120.252 660.663 122.614C660.632 122.638 660.606 122.667 660.587 122.701C660.569 122.736 660.558 122.773 660.555 122.812C660.553 122.851 660.559 122.89 660.572 122.926C660.586 122.962 660.608 122.995 660.636 123.022C660.664 123.049 660.697 123.07 660.733 123.083C660.77 123.096 660.809 123.101 660.848 123.097C660.886 123.094 660.924 123.082 660.957 123.063C660.991 123.043 661.02 123.017 661.043 122.985C663.437 120.565 664.826 117.329 664.933 113.927H664.868V113.918Z" fill="#FFA2A2"/>
<path opacity="0.98" d="M658.765 110.799C661.803 108.076 664.989 105.668 669.342 107.029C674.038 108.493 674.649 112.457 675.872 116.578C676.011 117.05 676.863 116.939 676.863 116.439C676.863 111.808 674.436 106.964 669.703 105.686C665.508 104.557 660.442 106.613 658.589 110.669C658.578 110.692 658.575 110.719 658.581 110.744C658.588 110.769 658.602 110.792 658.623 110.807C658.644 110.823 658.67 110.83 658.696 110.829C658.722 110.827 658.746 110.816 658.765 110.799Z" fill="#FFA2A2"/>
<path opacity="0.98" d="M671.666 118.791C673.725 117.548 676.078 116.877 678.482 116.846C678.64 116.846 678.631 116.615 678.482 116.587C675.995 116.361 673.516 117.097 671.555 118.643C671.535 118.658 671.522 118.68 671.519 118.704C671.515 118.728 671.521 118.753 671.536 118.773C671.551 118.792 671.573 118.805 671.597 118.809C671.621 118.812 671.646 118.806 671.666 118.791Z" fill="#8ACDFF"/>
<path opacity="0.98" d="M680.761 103.953C679.511 97.9243 670.573 92.9323 665.016 96.2294C664.94 96.2616 664.872 96.3084 664.815 96.367C664.757 96.4257 664.712 96.495 664.682 96.5711C664.651 96.6473 664.636 96.7286 664.637 96.8106C664.638 96.8926 664.655 96.9736 664.687 97.0491C664.719 97.1245 664.766 97.1928 664.825 97.2501C664.883 97.3074 664.953 97.3527 665.029 97.3832C665.105 97.4137 665.186 97.429 665.268 97.428C665.35 97.4271 665.431 97.4101 665.507 97.3778C669.035 96.2479 672.296 96.4054 675.389 98.5911C677.519 100.091 678.733 102.36 680.659 104.009C680.669 104.014 680.679 104.016 680.69 104.015C680.701 104.015 680.711 104.012 680.72 104.006C680.729 104.001 680.737 103.993 680.742 103.984C680.748 103.975 680.751 103.964 680.752 103.953H680.761Z" fill="#FFA2A2"/>
<path opacity="0.98" d="M665.489 96.9715L665.785 96.4158C665.818 96.3352 665.824 96.2458 665.8 96.1618C665.777 96.0778 665.726 96.0042 665.655 95.9527C662.423 94.0171 655.467 92.3685 652.8 96.0453C652.737 96.1528 652.716 96.2796 652.74 96.4017C652.765 96.5238 652.833 96.6327 652.932 96.708C653.031 96.7832 653.154 96.8195 653.279 96.8101C653.403 96.8006 653.519 96.746 653.606 96.6566C655.115 94.934 657.31 94.8599 659.422 95.0451C660.348 95.1285 664.979 95.4897 665.044 96.8974C665.044 97.1474 665.396 97.1289 665.489 96.953V96.9715Z" fill="#FFA2A2"/>
<path opacity="0.98" d="M645.603 103.527C646.82 103.618 648.019 103.871 649.169 104.277C650.225 104.684 651.095 105.37 652.105 105.814C652.137 105.827 652.172 105.83 652.206 105.821C652.239 105.812 652.268 105.792 652.29 105.765C652.311 105.737 652.322 105.704 652.322 105.669C652.322 105.635 652.311 105.601 652.29 105.573C650.827 103.906 647.78 103.156 645.649 103.156C645.418 103.156 645.353 103.499 645.603 103.527Z" fill="#FFA2A2"/>
<path opacity="0.98" d="M649.605 104.538C650.392 103.26 650.762 101.694 651.457 100.342C652.216 98.8234 653.309 97.5638 654.096 96.0171C654.217 95.7578 653.856 95.4892 653.652 95.6837C652.574 96.8344 651.702 98.1629 651.077 99.6106C650.336 101.046 649.392 102.778 649.336 104.417C649.336 104.556 649.53 104.686 649.623 104.538H649.605Z" fill="#FFA2A2"/>
<path opacity="0.98" d="M628.56 104.703C630.793 100.146 633.256 96.2008 638.165 94.1725C643.25 92.0702 648.483 93.2464 652.752 96.5342C652.87 96.6035 653.009 96.6272 653.142 96.6008C653.276 96.5745 653.395 96.4999 653.478 96.3913C653.56 96.2826 653.6 96.1475 653.589 96.0117C653.578 95.8758 653.518 95.7486 653.419 95.6543C644.417 88.8472 630.459 92.8296 628.162 104.592C628.107 104.842 628.459 104.907 628.56 104.703Z" fill="#FFA2A2"/>
<path opacity="0.98" d="M619.671 101.537C621.737 102.63 624.135 102.991 626.247 104.01C628.273 105.102 630.098 106.53 631.647 108.233C631.989 108.566 632.573 108.075 632.369 107.668C630.276 103.75 623.922 101.398 619.717 101.379C619.698 101.377 619.678 101.382 619.662 101.393C619.646 101.404 619.634 101.42 619.628 101.439C619.623 101.458 619.624 101.478 619.632 101.496C619.64 101.513 619.654 101.528 619.671 101.537Z" fill="#FFA2A2"/>
<path opacity="0.98" d="M643.224 99.8132C639.352 102.369 637.741 111.121 641.094 114.631C641.127 114.674 641.174 114.705 641.227 114.719C641.28 114.732 641.336 114.728 641.386 114.707C641.437 114.686 641.479 114.65 641.506 114.602C641.534 114.555 641.545 114.5 641.538 114.446C641.279 111.844 640.269 109.704 640.612 106.982C640.955 104.259 642.353 102.397 643.455 100.026C643.52 99.8688 643.326 99.7576 643.205 99.841L643.224 99.8132Z" fill="#FFA2A2"/>
<path opacity="0.98" d="M650.531 113.306C650.459 115.437 650.148 117.552 649.604 119.613C648.925 121.4 648.108 123.131 647.159 124.791C647.03 125.05 647.409 125.235 647.585 125.031C650.11 121.676 651.241 117.476 650.744 113.306C650.744 113.277 650.732 113.249 650.711 113.228C650.69 113.207 650.662 113.195 650.633 113.195C650.603 113.195 650.575 113.207 650.554 113.228C650.533 113.249 650.521 113.277 650.521 113.306H650.531Z" fill="#FFA2A2"/>
<path opacity="0.98" d="M634.841 117.01C636.586 118.391 638.006 120.14 638.999 122.132C639.87 124.049 639.926 125.92 640.203 127.939C640.212 127.973 640.232 128.003 640.259 128.025C640.287 128.047 640.321 128.059 640.356 128.059C640.391 128.059 640.426 128.047 640.453 128.025C640.481 128.003 640.501 127.973 640.509 127.939C641.287 123.929 638.351 118.863 634.952 116.825C634.931 116.816 634.908 116.814 634.885 116.82C634.863 116.825 634.843 116.838 634.83 116.856C634.816 116.875 634.808 116.897 634.809 116.92C634.809 116.943 634.817 116.965 634.832 116.983L634.841 117.01Z" fill="#FFA2A2"/>
<path opacity="0.98" d="M630.368 124.078C632.063 120.114 630.479 113.89 627.534 110.889C627.219 110.565 626.543 110.889 626.793 111.325C627.941 113.464 629.099 115.316 629.571 117.743C630.016 119.836 629.766 121.901 629.858 124.013C629.858 124.272 630.247 124.291 630.331 124.078H630.368Z" fill="#FFA2A2"/>
<path opacity="0.98" d="M603.869 122.041C606.758 122.365 610.019 122.198 612.566 120.642C612.732 120.54 612.566 120.327 612.399 120.374C609.518 121.3 606.971 122.106 603.887 121.865C603.776 121.865 603.758 122.031 603.887 122.041H603.869Z" fill="#FFA2A2"/>
<path opacity="0.98" d="M612.419 121.308C613.827 118.762 614.558 116.104 616.809 114.075C619.06 112.047 623.376 110.667 626.469 111.658C626.631 111.724 626.813 111.724 626.974 111.656C627.136 111.588 627.264 111.459 627.33 111.297C627.397 111.135 627.396 110.953 627.328 110.791C627.26 110.63 627.131 110.502 626.969 110.436C624.015 109.065 619.504 110.352 616.994 112.232C614.242 114.469 612.466 117.686 612.039 121.207C612.039 121.251 612.054 121.295 612.081 121.33C612.109 121.366 612.147 121.391 612.19 121.403C612.233 121.414 612.279 121.411 612.32 121.394C612.362 121.377 612.396 121.347 612.419 121.308Z" fill="#FFA2A2"/>
<path opacity="0.98" d="M607.797 110.103C609.14 112.576 611.789 115.734 614.891 115.799C615.086 115.799 615.271 115.521 615.058 115.401C613.789 114.66 612.4 114.271 611.159 113.428C609.857 112.535 608.756 111.381 607.927 110.038C607.927 109.983 607.778 110.038 607.815 110.103H607.797Z" fill="#FFA2A2"/>
<path opacity="0.98" d="M617.994 106.492C618.105 108.206 618.642 110.401 620.041 111.549C620.198 111.67 620.458 111.484 620.356 111.299C619.958 110.549 619.374 109.938 619.004 109.16C618.597 108.308 618.31 107.404 618.152 106.474C618.146 106.458 618.135 106.443 618.121 106.433C618.107 106.423 618.09 106.418 618.073 106.418C618.056 106.418 618.039 106.423 618.025 106.433C618.01 106.443 618 106.458 617.994 106.474V106.492Z" fill="#FFA2A2"/>
<path opacity="0.98" d="M610.705 130.893C612.557 133.069 615.678 135.227 618.679 134.921C618.737 134.908 618.789 134.878 618.829 134.834C618.869 134.79 618.894 134.735 618.901 134.676C618.908 134.617 618.897 134.557 618.869 134.505C618.841 134.453 618.797 134.411 618.744 134.384C617.435 134.138 616.145 133.804 614.882 133.384C613.406 132.76 612.065 131.854 610.936 130.717C610.806 130.587 610.584 130.717 610.705 130.893Z" fill="#FFA2A2"/>
<path opacity="0.98" d="M621.82 118.402C623.885 121.662 623.542 126.32 624.459 129.96C624.47 130.036 624.511 130.105 624.573 130.151C624.634 130.197 624.712 130.216 624.788 130.205C624.864 130.194 624.933 130.153 624.979 130.092C625.025 130.03 625.044 129.953 625.033 129.877C624.695 127.482 624.212 125.11 623.589 122.773C623.38 121.179 622.82 119.651 621.949 118.3C621.884 118.216 621.773 118.3 621.82 118.402Z" fill="#FFA2A2"/>
<path opacity="0.98" d="M597.572 138.062C595.781 136.453 594.674 134.219 594.479 131.82C594.21 128.865 596.035 126.707 597.368 124.299C597.47 124.123 597.202 124.003 597.081 124.133C593.858 127.837 592.45 135.107 597.489 138.173C597.563 138.173 597.646 138.117 597.572 138.062Z" fill="#FFA2A2"/>
<path opacity="0.98" d="M599.294 118.057C602.526 110.787 607.231 104.48 615.724 103.535C616.521 103.452 616.345 102.229 615.558 102.313C607.157 103.239 600.739 109.842 598.97 117.974C598.923 118.168 599.22 118.233 599.294 118.057Z" fill="#FFA2A2"/>
<path opacity="0.98" d="M616.262 104.202C617.67 97.8206 626.228 94.8755 631.868 97.6076C632.637 97.9688 633.128 96.7555 632.369 96.3851C626.737 93.69 615.586 96.6166 615.836 104.202C615.836 104.461 616.216 104.424 616.262 104.202Z" fill="#FFA2A2"/>
<path opacity="0.98" d="M597.46 138.165C598.979 140.267 602.629 141.545 605 142.305C607.927 143.203 611.069 143.108 613.937 142.036C614.428 141.869 614.113 141.11 613.622 141.304C608.213 143.073 602.119 141.406 597.581 138.044C597.565 138.029 597.543 138.02 597.521 138.02C597.498 138.02 597.476 138.029 597.46 138.044C597.445 138.06 597.436 138.082 597.436 138.105C597.436 138.127 597.445 138.149 597.46 138.165Z" fill="#FFA2A2"/>
<path opacity="0.98" d="M602.415 133.155C604.811 133.034 607.153 132.405 609.286 131.31C611.42 130.215 613.296 128.678 614.789 126.801C614.919 126.635 614.678 126.385 614.521 126.542C611.24 129.92 606.996 132.204 602.369 133.081V133.155H602.415Z" fill="#FFA2A2"/>
<path opacity="0.98" d="M644.408 151.991C648.483 152.074 654.327 148.749 656.448 145.239C656.465 145.217 656.478 145.191 656.485 145.164C656.492 145.136 656.494 145.108 656.49 145.08C656.486 145.052 656.476 145.025 656.462 145.001C656.448 144.976 656.429 144.955 656.406 144.938C656.384 144.921 656.358 144.909 656.331 144.901C656.304 144.894 656.275 144.893 656.247 144.897C656.219 144.9 656.192 144.91 656.168 144.924C656.144 144.938 656.123 144.957 656.105 144.98C653.327 148.027 648.696 151.639 644.417 151.815C644.325 151.815 644.325 151.991 644.417 151.991H644.408Z" fill="#FFA2A2"/>
<path opacity="0.98" d="M634.785 154.641C638.045 155.493 642.426 154.808 644.621 152.03C644.659 151.99 644.68 151.937 644.679 151.883C644.678 151.828 644.656 151.776 644.616 151.738C644.577 151.7 644.524 151.679 644.469 151.68C644.415 151.681 644.363 151.703 644.325 151.742C643.048 152.89 641.529 153.736 639.881 154.217C638.233 154.698 636.497 154.802 634.803 154.521C634.711 154.521 634.702 154.641 634.803 154.669L634.785 154.641Z" fill="#FFA2A2"/>
<path opacity="0.98" d="M646.075 160.05L646.834 160.504L647.214 160.347C646.89 160.18 646.566 159.995 646.288 159.819C646.093 159.726 645.899 159.949 646.075 160.05Z" fill="#FFA2A2"/>
<path opacity="0.98" d="M658.338 157.733C660.357 160.086 663.182 163.772 666.72 163.355C666.873 163.336 667.013 163.262 667.115 163.147C667.217 163.032 667.274 162.884 667.274 162.73C667.274 162.576 667.217 162.428 667.115 162.312C667.013 162.197 666.873 162.123 666.72 162.105C665.094 162.024 663.532 161.445 662.247 160.447C661.1 159.44 660.029 158.35 659.042 157.187C658.653 156.779 657.968 157.298 658.347 157.733H658.338Z" fill="#FFA2A2"/>
<path opacity="0.98" d="M699.396 125.948C700.026 122.243 695.876 116.687 691.986 116.687C691.88 116.674 691.772 116.701 691.684 116.761C691.595 116.822 691.532 116.912 691.505 117.016C691.478 117.12 691.489 117.23 691.537 117.326C691.584 117.422 691.665 117.498 691.764 117.539C693.617 118.594 695.413 119.058 696.849 120.836C698.099 122.392 698.507 124.151 699.127 125.985C699.183 126.133 699.387 126.078 699.414 125.985L699.396 125.948Z" fill="#FFA2A2"/>
<path opacity="0.98" d="M645.789 160.625C645.279 163.968 649.058 165.469 651.54 166.469C653.383 167.187 655.263 167.806 657.172 168.321C659.121 168.983 661.147 169.387 663.201 169.525C663.255 169.521 663.307 169.499 663.347 169.463C663.388 169.426 663.416 169.378 663.426 169.324C663.437 169.271 663.429 169.215 663.405 169.166C663.382 169.117 663.342 169.078 663.294 169.053C661.895 168.562 660.395 168.395 658.95 168.043C657.227 167.636 655.532 167.117 653.847 166.58C651.161 165.654 645.622 164.441 646.131 160.653C646.131 160.44 645.826 160.366 645.789 160.588V160.625Z" fill="#FFA2A2"/>
<path opacity="0.98" d="M653.309 167.136C653.512 169.229 653.948 171.887 655.161 173.674C655.263 173.832 655.476 173.674 655.439 173.526C655.207 172.517 654.726 171.544 654.42 170.544C654.114 169.544 653.809 168.275 653.577 167.117C653.577 166.988 653.336 166.997 653.355 167.117L653.309 167.136Z" fill="#FFA2A2"/>
<path opacity="0.98" d="M663.497 181.796C664.208 182.13 664.942 182.415 665.692 182.648C666.327 182.942 667.001 183.145 667.693 183.25C667.859 183.25 668.026 183.037 667.85 182.917C667.2 182.547 666.502 182.27 665.775 182.092C665.071 181.826 664.35 181.606 663.617 181.435C663.573 181.43 663.528 181.44 663.49 181.464C663.453 181.488 663.424 181.524 663.41 181.567C663.396 181.609 663.397 181.655 663.413 181.697C663.429 181.738 663.458 181.774 663.497 181.796Z" fill="#FFA3A3"/>
<path opacity="0.98" d="M668.007 183.194C669.226 180.368 669.79 177.303 669.655 174.229C669.628 172.587 669.507 170.948 669.294 169.32C669.193 167.718 668.882 166.136 668.368 164.615C668.257 164.356 667.785 164.328 667.766 164.615C667.779 166.05 667.931 167.48 668.22 168.885C668.433 170.441 668.609 171.997 668.683 173.515C668.846 176.702 668.438 179.892 667.479 182.934C667.386 183.231 667.849 183.37 667.979 183.101L668.007 183.194Z" fill="#FFA2A2"/>
<path opacity="0.98" d="M629.941 156.846C636.054 164.404 645.066 160.551 653.096 158.967C665.359 156.494 677.519 156.244 689.977 156.809C690.838 156.809 691.042 155.55 690.153 155.448C680.427 154.47 670.618 154.703 660.95 156.143C656.151 156.823 651.39 157.75 646.687 158.921C640.472 160.431 635.573 160.57 630.432 156.402C630.372 156.349 630.294 156.32 630.214 156.323C630.134 156.325 630.057 156.358 630 156.415C629.944 156.471 629.911 156.548 629.908 156.628C629.906 156.708 629.934 156.786 629.988 156.846H629.941Z" fill="#FFA2A2"/>
<path opacity="0.98" d="M676.937 172.48C683.059 173.582 687.634 167.544 689.839 162.607C690.181 161.857 689.255 161.302 688.653 161.681C686.801 162.904 685.939 165.025 684.661 166.766C682.661 169.498 680.206 170.526 676.928 170.971C676.751 170.998 676.591 171.088 676.475 171.224C676.359 171.36 676.295 171.533 676.295 171.711C676.295 171.89 676.359 172.063 676.475 172.199C676.591 172.334 676.751 172.424 676.928 172.452L676.937 172.48Z" fill="#FFA2A2"/>
<path opacity="0.98" d="M686.059 161.995C686.837 163.848 689.31 163.292 690.69 162.393C691.677 161.648 692.494 160.7 693.088 159.615C694.084 158.15 694.948 156.601 695.672 154.984C695.732 154.82 695.731 154.64 695.67 154.477C695.61 154.313 695.494 154.176 695.342 154.089C695.19 154.003 695.013 153.973 694.841 154.004C694.67 154.036 694.515 154.127 694.404 154.262C693.051 155.836 692.209 157.753 690.958 159.411C690.46 160.22 689.735 160.864 688.874 161.264C688.044 161.445 687.195 161.529 686.346 161.514C686.297 161.52 686.251 161.537 686.211 161.564C686.17 161.591 686.137 161.627 686.113 161.669C686.088 161.711 686.074 161.759 686.071 161.807C686.068 161.856 686.077 161.904 686.096 161.949L686.059 161.995Z" fill="#FFA2A2"/>
<path opacity="0.98" d="M675.167 172.329C675.815 172.431 676.445 172.486 677.075 172.579C677.179 172.441 677.242 172.276 677.257 172.104C677.272 171.932 677.239 171.759 677.161 171.605C677.082 171.451 676.963 171.321 676.815 171.232C676.668 171.142 676.498 171.095 676.325 171.097C674.139 171.264 671.574 168.569 670.147 167.105C669.503 166.465 668.926 165.76 668.425 165.003C667.823 164.077 667.656 163.002 666.97 162.16C666.937 162.119 666.894 162.087 666.845 162.068C666.796 162.049 666.742 162.042 666.69 162.05C666.638 162.057 666.589 162.078 666.547 162.11C666.505 162.143 666.472 162.185 666.452 162.234C665.526 164.632 668.239 167.578 669.786 169.143C670.939 170.447 672.297 171.554 673.806 172.421C674.246 172.282 674.712 172.25 675.167 172.329Z" fill="#FFA2A2"/>
</g>
<path d="M284.894 123.398H128.293C123.304 123.398 119.26 127.441 119.26 132.427V240.935C119.26 245.921 123.304 249.963 128.293 249.963H284.894C289.883 249.963 293.927 245.921 293.927 240.935V132.427C293.927 127.441 289.883 123.398 284.894 123.398Z" fill="#528399"/>
<path d="M283.954 127.734H129.231C126.119 127.734 123.596 130.256 123.596 133.366V239.599C123.596 242.709 126.119 245.231 129.231 245.231H283.954C287.066 245.231 289.589 242.709 289.589 239.599V133.366C289.589 130.256 287.066 127.734 283.954 127.734Z" fill="url(#paint11_linear_4302_27453)"/>
<path d="M262.557 138.544C263.864 138.544 264.923 137.573 264.923 136.376C264.923 135.178 263.864 134.207 262.557 134.207C261.251 134.207 260.191 135.178 260.191 136.376C260.191 137.573 261.251 138.544 262.557 138.544Z" fill="white"/>
<path d="M271.231 138.544C272.537 138.544 273.597 137.573 273.597 136.376C273.597 135.178 272.537 134.207 271.231 134.207C269.924 134.207 268.865 135.178 268.865 136.376C268.865 137.573 269.924 138.544 271.231 138.544Z" fill="white"/>
<path d="M279.905 138.544C281.211 138.544 282.27 137.573 282.27 136.376C282.27 135.178 281.211 134.207 279.905 134.207C278.598 134.207 277.539 135.178 277.539 136.376C277.539 137.573 278.598 138.544 279.905 138.544Z" fill="white"/>
<path d="M251.571 132.746H132.408C130.691 132.746 129.299 134.156 129.299 135.896V135.904C129.299 137.644 130.691 139.055 132.408 139.055H251.571C253.289 139.055 254.681 137.644 254.681 135.904V135.896C254.681 134.156 253.289 132.746 251.571 132.746Z" fill="white"/>
<path d="M226.707 94.7781L229.331 93.758C230.178 93.4296 231.117 93.4243 231.968 93.7431C232.819 94.0618 233.524 94.6825 233.95 95.4875L235.246 97.9661C236.452 100.25 237.21 102.744 237.48 105.314L237.941 109.674C238.163 111.729 237.814 113.806 236.931 115.675L231.755 123.079L224.6 113.332L226.707 94.7781Z" fill="#323333"/>
<path d="M202.521 222.888L186.26 218.898L188.035 246.885H198.693L202.521 222.888Z" fill="url(#paint12_linear_4302_27453)"/>
<path d="M203.139 155.41L195.46 167.662C193.992 170.011 193.113 172.677 192.897 175.434L185.962 219.907L206.07 222.833L203.139 155.41Z" fill="#40738F"/>
<path d="M267.307 154.139L245.332 138.621L242.212 134.121H226.613L202.333 156.157C199.958 158.31 198.073 160.946 196.802 163.888C195.532 166.83 194.906 170.011 194.968 173.215L189.51 246.886H270.634L277.328 175.951C277.727 171.755 277.01 167.528 275.25 163.698C273.49 159.868 270.75 156.57 267.307 154.139Z" fill="#5589A7"/>
<path d="M241.16 139.085L233.03 125.84L217.109 130.088V149.828L218.982 164.874L241.16 139.085Z" fill="#E78E7B"/>
<path d="M227.591 101.395L230.382 119.813L230.912 115.939C231.013 115.211 231.256 114.511 231.628 113.879C232 113.247 232.493 112.695 233.078 112.255C233.234 112.132 233.421 112.056 233.619 112.035C233.816 112.014 234.015 112.049 234.193 112.136C234.747 112.424 235.212 112.859 235.537 113.393C235.862 113.928 236.034 114.542 236.035 115.169V121.663L235.284 123.679C235.091 124.201 234.774 124.669 234.361 125.041C233.947 125.413 233.45 125.678 232.912 125.815C233.343 127.782 233.383 129.815 233.03 131.798C232.677 133.781 231.938 135.675 230.856 137.371C229.773 139.067 228.368 140.532 226.721 141.682C225.075 142.832 223.218 143.645 221.258 144.074C219.614 144.435 217.916 144.468 216.26 144.17C214.603 143.871 213.022 143.249 211.606 142.337C210.189 141.425 208.966 140.241 208.005 138.855C207.044 137.468 206.365 135.904 206.006 134.254L202.804 119.495C202.459 117.91 202.429 116.272 202.715 114.675C203.001 113.078 203.598 111.554 204.471 110.188C205.344 108.823 206.476 107.644 207.803 106.718C209.13 105.792 210.626 105.138 212.205 104.792L227.591 101.395Z" fill="url(#paint13_linear_4302_27453)"/>
<path d="M223.582 107.78C223.582 107.78 225.633 113.832 229.727 115.563L228.705 93.4944C228.648 92.4767 228.221 91.5159 227.505 90.7958C226.79 90.0757 225.836 89.6468 224.827 89.591L217.542 89.1886C216.069 89.1045 214.596 89.3381 213.22 89.8738C211.844 90.4095 210.597 91.235 209.562 92.2952L202.437 98.0658C200.92 99.6111 198.447 104.609 198.191 106.766L196.212 121.406L204.878 112.553C202.557 116.274 201.579 120.688 202.109 125.052C202.109 125.052 207.4 117.092 212.97 114.541C212.97 114.541 211.278 116.15 206.785 121.124C206.785 121.092 218.388 122.758 223.582 107.78Z" fill="#323333"/>
<path d="M271.045 190.96L270.781 235.818C270.775 237.093 270.507 238.354 269.994 239.522C269.481 240.69 268.734 241.739 267.798 242.606C266.863 243.473 265.76 244.138 264.557 244.56C263.354 244.983 262.078 245.153 260.806 245.062L227.671 242.711L200.822 239.522L236.328 223.496L247.26 173.397L271.045 190.96Z" fill="#40738F"/>
<path d="M240.897 225.334L270.244 227.682L274.877 177.752C275.33 174.019 274.281 170.26 271.96 167.302C269.64 164.344 266.238 162.429 262.503 161.977C260.652 161.754 258.776 161.897 256.981 162.398C255.186 162.899 253.507 163.749 252.041 164.899C250.574 166.049 249.349 167.476 248.434 169.099C247.52 170.723 246.934 172.51 246.712 174.359L240.897 225.334Z" fill="#5589A7"/>
<path fill-rule="evenodd" clip-rule="evenodd" d="M226.233 169.07C227.759 168.41 229.484 168.374 231.036 168.97L236.935 171.228C237.73 171.53 238.456 171.988 239.07 172.575C239.684 173.162 240.175 173.867 240.512 174.646C240.849 175.426 241.026 176.266 241.033 177.115C241.04 177.964 240.876 178.807 240.551 179.592L240.55 179.595L235.079 192.96C235.079 192.961 235.079 192.961 235.079 192.961C233.838 195.981 231.59 198.48 228.717 200.035L228.713 200.037L227.267 200.84L228.095 202.329L229.533 201.531C232.75 199.789 235.267 196.99 236.657 193.608L236.657 193.607L242.127 180.242C242.127 180.242 242.128 180.241 242.128 180.241C242.539 179.246 242.747 178.178 242.738 177.101C242.729 176.024 242.505 174.96 242.077 173.971C241.649 172.982 241.028 172.088 240.248 171.344C239.47 170.6 238.549 170.019 237.542 169.636C237.541 169.636 237.541 169.636 237.541 169.636L231.648 167.38C231.648 167.38 231.647 167.379 231.647 167.379C229.679 166.624 227.492 166.669 225.556 167.506C223.621 168.342 222.091 169.903 221.293 171.853C221.293 171.854 221.293 171.854 221.293 171.855L216.352 183.792C215.473 185.904 215.063 188.181 215.15 190.467L215.15 190.468L215.326 195.022L217.03 194.956L216.854 190.402C216.776 188.363 217.142 186.331 217.926 184.446L217.927 184.445L222.87 172.502L222.871 172.499C223.5 170.96 224.707 169.729 226.233 169.07Z" fill="#323333"/>
<path d="M225.41 200.659L227.728 199.685C228.147 199.51 228.629 199.707 228.805 200.125L229.438 201.634C229.614 202.052 229.417 202.534 228.998 202.71L226.681 203.683C226.262 203.859 225.78 203.662 225.604 203.243L224.971 201.735C224.795 201.316 224.992 200.835 225.41 200.659Z" fill="#D9F8FF"/>
<path d="M214.624 196.12L214.628 193.83C214.628 193.376 214.997 193.008 215.451 193.009L216.911 193.011C217.366 193.012 217.733 193.381 217.732 193.835L217.729 196.125C217.728 196.579 217.359 196.947 216.905 196.946L215.445 196.944C214.991 196.943 214.623 196.574 214.624 196.12Z" fill="#D9F8FF"/>
<path fill-rule="evenodd" clip-rule="evenodd" d="M234.459 169.198C234.459 169.198 234.459 169.198 235.208 169.6C235.958 170.001 235.958 170 235.958 170L235.974 169.971C235.98 169.96 235.987 169.947 235.995 169.931C236.002 169.917 236.011 169.902 236.02 169.884C236.06 169.809 236.12 169.697 236.196 169.552C236.349 169.262 236.57 168.838 236.846 168.3C237.398 167.224 238.167 165.693 239.037 163.868C240.777 160.221 242.931 155.385 244.569 150.659C246.193 145.974 247.364 141.251 247.014 137.893C246.837 136.2 246.256 134.692 244.975 133.782C243.694 132.872 241.932 132.716 239.755 133.224L240.142 134.875C242.089 134.421 243.272 134.654 243.988 135.163C244.703 135.671 245.169 136.61 245.322 138.069C245.629 141.016 244.585 145.421 242.961 150.105C241.352 154.747 239.228 159.52 237.501 163.14C236.638 164.948 235.877 166.465 235.331 167.528C235.058 168.06 234.84 168.479 234.69 168.764C234.615 168.906 234.557 169.016 234.518 169.089C234.498 169.125 234.483 169.153 234.473 169.171L234.46 169.197L234.459 169.198Z" fill="#323333"/>
<path fill-rule="evenodd" clip-rule="evenodd" d="M214.819 145.392C215.335 144.932 215.939 144.584 216.594 144.371L217.109 145.981C216.665 146.126 216.255 146.364 215.908 146.679L215.876 146.708L215.841 146.733C210.401 150.741 206.484 158.45 203.918 165.306C202.644 168.711 201.719 171.861 201.112 174.159C200.809 175.308 200.586 176.243 200.439 176.889C200.365 177.212 200.311 177.463 200.275 177.632C200.257 177.716 200.244 177.781 200.235 177.823L200.225 177.871L200.223 177.882L200.222 177.885C200.222 177.885 200.222 177.885 199.4 177.719C198.578 177.552 198.578 177.552 198.578 177.552L198.578 177.551L198.579 177.547L198.582 177.533C198.584 177.521 198.588 177.503 198.593 177.48C198.602 177.434 198.616 177.366 198.635 177.277C198.673 177.101 198.729 176.842 198.804 176.51C198.955 175.847 199.183 174.894 199.492 173.724C200.108 171.386 201.05 168.18 202.349 164.709C204.925 157.827 208.971 149.719 214.819 145.392Z" fill="#323333"/>
<path d="M198.973 184.589C196.796 184.589 195.03 182.912 195.03 180.843C195.03 178.775 196.796 177.098 198.973 177.098C201.151 177.098 202.916 178.775 202.916 180.843C202.916 182.912 201.151 184.589 198.973 184.589Z" fill="#EEF7FF"/>
<path d="M198.972 183.801C197.448 183.801 196.212 182.477 196.212 180.844C196.212 179.211 197.448 177.887 198.972 177.887C200.497 177.887 201.732 179.211 201.732 180.844C201.732 182.477 200.497 183.801 198.972 183.801Z" fill="#A7C3DB"/>
<path d="M241.949 144.371L229.929 164.881H221.052L230.553 166.057L241.949 144.371Z" fill="#40738F"/>
<path d="M163.488 255.658C163.491 255.07 163.704 254.502 164.09 254.058C164.475 253.614 165.006 253.323 165.588 253.238L177.253 251.477C178.533 251.28 179.705 250.649 180.575 249.689L186.122 243.59L177.37 240.72C177.12 240.639 176.901 240.484 176.741 240.275C176.581 240.067 176.488 239.814 176.475 239.552C176.461 239.29 176.528 239.029 176.666 238.806C176.803 238.582 177.006 238.406 177.246 238.301L191.756 237.689L203.216 239.183L240.897 228.373L269.466 227.61L270.021 231.954C270.254 233.372 270.207 234.822 269.88 236.22C269.554 237.619 268.955 238.939 268.118 240.105C267.281 241.271 266.223 242.26 265.003 243.016C263.784 243.771 262.427 244.279 261.011 244.509L207.05 250.095L194.936 259.15C193.83 259.979 192.541 260.529 191.177 260.755L181.082 262.418C179.51 262.68 177.895 262.502 176.415 261.906L164.442 257.09C164.156 256.978 163.911 256.78 163.74 256.524C163.57 256.268 163.481 255.966 163.488 255.658Z" fill="url(#paint14_linear_4302_27453)"/>
<path d="M216.32 164.085L212.587 162.113L209.618 163.103L216.32 164.085Z" fill="#40738F"/>
<path d="M241.408 219.9L265.694 216.146L242.798 222.61L260.184 223.437L240.827 225.117L241.408 219.9Z" fill="#40738F"/>
<g opacity="0.63">
<path opacity="0.63" d="M762.126 512.289H62.5062C61.4985 512.289 60.6816 513.106 60.6816 514.114C60.6816 515.121 61.4985 515.938 62.5062 515.938H762.126C763.134 515.938 763.951 515.121 763.951 514.114C763.951 513.106 763.134 512.289 762.126 512.289Z" fill="#C6DCE0"/>
</g>
<g opacity="0.8">
<path opacity="0.63" d="M652.3 251.572V224.714C652.3 222.616 651.466 220.605 649.983 219.121C648.5 217.638 646.488 216.805 644.39 216.805H568.925C567.885 216.803 566.856 217.007 565.895 217.404C564.934 217.801 564.061 218.383 563.326 219.118C562.59 219.853 562.007 220.725 561.609 221.685C561.211 222.645 561.006 223.675 561.006 224.714V251.572C561.006 252.612 561.211 253.641 561.609 254.601C562.007 255.561 562.59 256.434 563.326 257.168C564.061 257.903 564.934 258.485 565.895 258.882C566.856 259.279 567.885 259.483 568.925 259.481H641.815L662.358 270.66L652.3 251.572Z" fill="url(#paint15_linear_4302_27453)"/>
</g>
<path opacity="0.56" d="M643.371 234.539H567.545V238.049H643.371V234.539Z" fill="white"/>
<path opacity="0.56" d="M643.371 225.73H567.545V229.241H643.371V225.73Z" fill="white"/>
<path opacity="0.56" d="M617.022 243.348H567.545V246.858H617.022V243.348Z" fill="white"/>
<g opacity="0.63">
<path opacity="0.63" d="M164.989 94.3701V71.2258C164.989 70.3301 164.812 69.4431 164.469 68.6157C164.126 67.7883 163.623 67.0366 162.989 66.4036C162.356 65.7706 161.603 65.2687 160.775 64.9267C159.948 64.5846 159.06 64.4091 158.165 64.4102H93.1344C92.2387 64.4091 91.3515 64.5846 90.5236 64.9267C89.6958 65.2687 88.9435 65.7706 88.3097 66.4036C87.6759 67.0366 87.1732 67.7883 86.8301 68.6157C86.4871 69.4431 86.3105 70.3301 86.3105 71.2258V94.3701C86.3105 95.2658 86.4871 96.1527 86.8301 96.9802C87.1732 97.8076 87.6759 98.5593 88.3097 99.1923C88.9435 99.8253 89.6958 100.327 90.5236 100.669C91.3515 101.011 92.2387 101.187 93.1344 101.186H155.954L173.656 110.819L164.989 94.3701Z" fill="url(#paint16_linear_4302_27453)"/>
</g>
<path opacity="0.56" d="M157.178 79.7109H92.1211V82.8652H157.178V79.7109Z" fill="white"/>
<path opacity="0.56" d="M157.178 72.2188H92.1211V74.9787H157.178V72.2188Z" fill="white"/>
<path opacity="0.56" d="M134.704 87.2031H92.1211V90.3574H134.704V87.2031Z" fill="white"/>
<path fill-rule="evenodd" clip-rule="evenodd" d="M523.754 59.3594H619.29V115.4H618.363V60.2855H524.68V65.2589H523.754V59.3594Z" fill="#FF6961"/>
<path fill-rule="evenodd" clip-rule="evenodd" d="M618.874 115.446C617.191 115.446 615.827 116.81 615.827 118.493C615.827 120.176 617.191 121.54 618.874 121.54C620.557 121.54 621.921 120.176 621.921 118.493C621.921 116.81 620.557 115.446 618.874 115.446ZM614.9 118.493C614.9 116.298 616.679 114.52 618.874 114.52C621.068 114.52 622.847 116.298 622.847 118.493C622.847 120.687 621.068 122.466 618.874 122.466C616.679 122.466 614.9 120.687 614.9 118.493Z" fill="#FF6961"/>
<path fill-rule="evenodd" clip-rule="evenodd" d="M638.833 146.52C637.15 146.52 635.786 147.884 635.786 149.567C635.786 151.25 637.15 152.614 638.833 152.614C640.516 152.614 641.88 151.25 641.88 149.567C641.88 147.884 640.516 146.52 638.833 146.52ZM634.859 149.567C634.859 147.373 636.638 145.594 638.833 145.594C641.027 145.594 642.806 147.373 642.806 149.567C642.806 151.761 641.027 153.54 638.833 153.54C636.638 153.54 634.859 151.761 634.859 149.567Z" fill="#FF6961"/>
<path fill-rule="evenodd" clip-rule="evenodd" d="M614.344 149.566H635.47V150.493H615.27V216.814H614.344V149.566Z" fill="#FF6961"/>
</g>
<path d="M186.078 366.508H188.13C189.882 366.506 191.561 365.807 192.8 364.566C194.039 363.324 194.735 361.641 194.737 359.885V292.302C194.737 290.546 194.041 288.861 192.802 287.619C191.563 286.377 189.883 285.68 188.13 285.68H91.3316C90.4643 285.68 89.6055 285.851 88.8043 286.184C88.0032 286.517 87.2753 287.005 86.6624 287.62C86.0495 288.235 85.5636 288.965 85.2324 289.769C84.9013 290.572 84.7314 291.433 84.7324 292.302V359.885C84.7324 361.64 85.4274 363.323 86.6648 364.565C87.9021 365.807 89.5807 366.506 91.3316 366.508H186.078Z" fill="#C8DDE1"/>
<path d="M199.53 278.398H82.979C81.1978 278.401 79.4905 279.108 78.231 280.365C76.9715 281.621 76.2627 283.324 76.2598 285.1V365.697C76.2598 367.474 76.9677 369.179 78.2278 370.436C79.4879 371.692 81.1969 372.398 82.979 372.398H199.53C200.413 372.4 201.288 372.228 202.104 371.891C202.921 371.555 203.663 371.062 204.288 370.439C204.913 369.817 205.409 369.078 205.747 368.264C206.086 367.45 206.26 366.578 206.26 365.697V285.1C206.257 283.322 205.546 281.617 204.285 280.361C203.023 279.104 201.313 278.398 199.53 278.398Z" fill="#77ABC2"/>
<path d="M197.189 283.398H85.3303C84.2508 283.398 83.2154 283.827 82.452 284.591C81.6886 285.354 81.2598 286.389 81.2598 287.468V364.328C81.2598 365.408 81.6886 366.443 82.452 367.206C83.2154 367.97 84.2508 368.398 85.3303 368.398H197.189C198.269 368.398 199.304 367.97 200.068 367.206C200.831 366.443 201.26 365.408 201.26 364.328V287.468C201.26 286.389 200.831 285.354 200.068 284.591C199.304 283.827 198.269 283.398 197.189 283.398Z" fill="url(#paint17_linear_4302_27453)"/>
<path d="M182.76 288.398C183.056 288.398 183.346 288.31 183.593 288.146C183.84 287.981 184.032 287.747 184.146 287.472C184.259 287.198 184.289 286.897 184.231 286.606C184.173 286.315 184.03 286.048 183.82 285.838C183.611 285.628 183.343 285.485 183.052 285.427C182.761 285.369 182.46 285.399 182.186 285.513C181.912 285.626 181.677 285.818 181.513 286.065C181.348 286.312 181.26 286.602 181.26 286.898C181.26 287.296 181.418 287.678 181.699 287.959C181.98 288.24 182.362 288.398 182.76 288.398Z" fill="white"/>
<path d="M189.26 288.398C189.655 288.398 190.042 288.31 190.371 288.146C190.7 287.981 190.956 287.747 191.108 287.472C191.259 287.198 191.299 286.897 191.221 286.606C191.144 286.315 190.954 286.048 190.674 285.838C190.394 285.628 190.038 285.485 189.65 285.427C189.262 285.369 188.86 285.399 188.494 285.513C188.129 285.626 187.817 285.818 187.597 286.065C187.377 286.312 187.26 286.602 187.26 286.898C187.26 287.296 187.47 287.678 187.846 287.959C188.221 288.24 188.729 288.398 189.26 288.398Z" fill="white"/>
<path d="M195.542 288.395C195.922 288.354 196.278 288.232 196.568 288.043C196.859 287.854 197.07 287.606 197.179 287.329C197.287 287.052 197.287 286.757 197.179 286.48C197.07 286.203 196.859 285.955 196.568 285.766C196.278 285.576 195.922 285.454 195.542 285.413C195.162 285.373 194.774 285.415 194.426 285.536C194.077 285.656 193.781 285.85 193.575 286.093C193.368 286.337 193.259 286.62 193.26 286.909C193.306 287.332 193.571 287.725 193.997 288.003C194.424 288.281 194.979 288.422 195.542 288.395Z" fill="white"/>
<path d="M174.073 285.398H88.4461C87.8662 285.398 87.3101 285.609 86.9001 285.984C86.4901 286.359 86.2598 286.868 86.2598 287.398C86.2598 287.929 86.4901 288.438 86.9001 288.813C87.3101 289.188 87.8662 289.398 88.4461 289.398H174.073C174.653 289.398 175.209 289.188 175.619 288.813C176.029 288.438 176.26 287.929 176.26 287.398C176.26 287.136 176.203 286.876 176.093 286.633C175.983 286.39 175.822 286.17 175.619 285.984C175.416 285.799 175.175 285.651 174.91 285.551C174.645 285.45 174.361 285.398 174.073 285.398Z" fill="white"/>
<path d="M420.195 316.434H248.04C242.555 316.434 238.109 320.879 238.109 326.362V445.687C238.109 451.17 242.555 455.616 248.04 455.616H420.195C425.679 455.616 430.125 451.17 430.125 445.687V326.362C430.125 320.879 425.679 316.434 420.195 316.434Z" fill="#528399"/>
<path d="M419.198 321.559H249.039C245.616 321.559 242.842 324.334 242.842 327.757V444.685C242.842 448.108 245.616 450.883 249.039 450.883H419.198C422.62 450.883 425.395 448.108 425.395 444.685V327.757C425.395 324.334 422.62 321.559 419.198 321.559Z" fill="url(#paint18_linear_4302_27453)"/>
<path d="M156.03 323.499L132.926 309.999C132.25 309.605 131.483 309.398 130.703 309.398C129.923 309.399 129.156 309.607 128.481 310.003C127.805 310.398 127.244 310.966 126.855 311.65C126.465 312.334 126.26 313.11 126.26 313.9V340.899C126.259 341.689 126.463 342.465 126.853 343.15C127.243 343.834 127.804 344.402 128.48 344.797C129.156 345.192 129.923 345.399 130.704 345.398C131.484 345.398 132.251 345.188 132.926 344.792L156.03 331.292C156.707 330.899 157.27 330.331 157.662 329.647C158.054 328.963 158.26 328.186 158.26 327.396C158.26 326.605 158.054 325.828 157.662 325.144C157.27 324.46 156.707 323.892 156.03 323.499Z" fill="white"/>
<path d="M397.596 330.626C399.011 330.626 400.159 329.478 400.159 328.063C400.159 326.647 399.011 325.5 397.596 325.5C396.181 325.5 395.033 326.647 395.033 328.063C395.033 329.478 396.181 330.626 397.596 330.626Z" fill="white"/>
<path d="M407.059 330.626C408.474 330.626 409.622 329.478 409.622 328.063C409.622 326.647 408.474 325.5 407.059 325.5C405.644 325.5 404.496 326.647 404.496 328.063C404.496 329.478 405.644 330.626 407.059 330.626Z" fill="white"/>
<path d="M416.522 330.626C418.155 330.626 419.479 329.478 419.479 328.063C419.479 326.647 418.155 325.5 416.522 325.5C414.888 325.5 413.564 326.647 413.564 328.063C413.564 329.478 414.888 330.626 416.522 330.626Z" fill="white"/>
<path d="M384.542 325.105H254.512C252.638 325.105 251.119 326.604 251.119 328.453V328.461C251.119 330.31 252.638 331.808 254.512 331.808H384.542C386.416 331.808 387.935 330.31 387.935 328.461V328.453C387.935 326.604 386.416 325.105 384.542 325.105Z" fill="white"/>
<path fill-rule="evenodd" clip-rule="evenodd" d="M225.44 346.359L235.26 354.398L231.485 353.424L240.26 356.121L236.036 371.398L212.26 365.578L215.303 354.297L194.935 350.588C194.412 350.493 193.946 350.187 193.637 349.736C193.328 349.286 193.202 348.726 193.285 348.179C193.368 347.642 193.645 347.159 194.06 346.83C194.475 346.501 194.996 346.351 195.513 346.412L216.76 348.898L219.504 349.742L218.065 346.042L216.924 344.807C216.269 344.101 215.785 343.242 215.513 342.301C215.24 341.36 215.187 340.365 215.357 339.398L225.44 346.359Z" fill="#FF9B55"/>
<path d="M211.463 366.795L205.871 364.569C205.259 364.326 204.728 363.904 204.344 363.354C203.96 362.805 203.74 362.153 203.711 361.477L203.26 351.398L215.214 352.909C215.717 352.998 216.197 353.195 216.623 353.486C217.049 353.778 217.41 354.158 217.685 354.602C217.96 355.046 218.141 355.545 218.218 356.065C218.295 356.586 218.265 357.117 218.131 357.626L216.457 364.604C216.376 365.159 216.158 365.682 215.825 366.126C215.492 366.569 215.054 366.917 214.553 367.136C214.053 367.356 213.506 367.439 212.965 367.38C212.424 367.32 211.907 367.119 211.463 366.795Z" fill="#FA893A"/>
<path d="M225.098 373.501L231.76 351.402L271.156 373.501L339.543 360.817L343.777 396.325L275.528 403.355C266.86 404.248 258.203 401.568 251.556 395.932L225.098 373.501Z" fill="white"/>
<path d="M339.291 362.512L339.379 360.211C330.979 359.884 322.95 366.353 318.437 373.487C312.674 382.566 308.683 392.665 306.68 403.242L300.801 450.884H397.4L393.875 402.711L393.593 398.87C392.218 381.266 378.16 362.68 360.611 361.539L341.521 360.291" fill="white"/>
<path d="M321.099 393.111L339.661 360.199L364.674 361.763L324.249 399.207L318.849 450.884L311.445 450.593L321.099 393.111Z" fill="#FF6961"/>
<path d="M359.549 450.884L365.857 409.484V450.884H359.549Z" fill="#C7E7FF"/>
<path d="M366.252 365.324L337.691 404.11H329.584L334.044 414.452L333.065 450.884L337.245 411.675L331.674 405.838L340.883 407.275L366.252 365.324Z" fill="#C7E7FF"/>
<path d="M375.605 323.96C376.257 322.201 376.559 320.329 376.494 318.451C376.43 316.574 375.999 314.727 375.228 313.018C374.457 311.308 373.36 309.768 371.999 308.487C370.639 307.206 369.042 306.207 367.299 305.549L363.603 304.153C356.887 301.618 348.935 305.99 345.544 312.465C344.636 314.119 343.53 315.654 342.251 317.036L337.469 322.348L340.687 325.165L340.062 326.828C335.691 338.598 340.761 341.79 347.527 344.873L340.119 361.231L338.473 373.999L356.458 364.739L364.18 361.547L369.859 339.512H369.802C369.974 339.138 370.147 338.756 370.295 338.357L375.605 323.96Z" fill="url(#paint19_linear_4302_27453)"/>
<path d="M349.434 307.475L350.578 311.092C351.872 315.219 354.273 318.912 357.521 321.771L358.564 322.681L358.051 328.476L363.85 324.212C364.406 323.807 365.091 323.62 365.776 323.687C366.46 323.755 367.096 324.071 367.562 324.577C368.019 325.07 368.283 325.71 368.308 326.382C368.332 327.053 368.114 327.711 367.695 328.236C366.025 330.311 364.953 332.802 364.594 335.44C364.235 338.078 364.602 340.765 365.656 343.21L367.032 346.397L375.317 341.29C379.478 338.717 382.667 334.835 384.381 330.255L390.23 314.61L395.325 315.877C397.956 316.53 400.729 316.293 403.211 315.203C405.692 314.112 407.741 312.23 409.037 309.85C410.226 307.669 410.661 305.156 410.273 302.702C409.884 300.248 408.696 297.992 406.891 296.283L402.434 291.97C400.839 290.46 398.885 289.381 396.756 288.838C394.628 288.295 392.395 288.304 390.271 288.866C388.281 289.394 386.49 290.495 385.12 292.031C383.75 293.568 382.862 295.472 382.566 297.508L381.613 303.973L367.115 295.795C365.463 294.862 363.616 294.33 361.721 294.239C359.826 294.149 357.936 294.503 356.203 295.273H356.129C353.835 296.292 351.937 298.033 350.726 300.23C349.514 302.427 349.055 304.96 349.418 307.442L349.434 307.475Z" fill="#323333"/>
<path d="M347.101 345.215L359.943 346.805L344.172 351.523L347.101 345.215Z" fill="#E57E38"/>
<path d="M206.568 385.824L188.828 395.472H125.875C124.062 395.472 122.322 396.192 121.04 397.475C119.758 398.758 119.037 400.497 119.037 402.311V425.51C119.037 426.408 119.214 427.298 119.558 428.127C119.901 428.957 120.405 429.711 121.04 430.346C121.675 430.981 122.429 431.485 123.259 431.829C124.088 432.173 124.977 432.35 125.875 432.35H191.044C191.941 432.35 192.83 432.173 193.659 431.829C194.489 431.485 195.242 430.981 195.876 430.346C196.511 429.711 197.014 428.957 197.356 428.127C197.699 427.297 197.875 426.408 197.874 425.51V402.311L206.568 385.824Z" fill="#9ADDEA"/>
<path opacity="0.56" d="M193.556 406.723H126.922V409.877H193.556V406.723Z" fill="white"/>
<path opacity="0.56" d="M169.899 414.215H126.922V416.975H169.899V414.215Z" fill="white"/>
<path fill-rule="evenodd" clip-rule="evenodd" d="M106.025 359.41H106.813V415.779H120.614V416.581H106.025V359.41Z" fill="#00B5D5"/>
<path fill-rule="evenodd" clip-rule="evenodd" d="M106.22 352.332C104.38 352.332 102.889 353.824 102.889 355.663C102.889 357.503 104.38 358.995 106.22 358.995C108.06 358.995 109.551 357.503 109.551 355.663C109.551 353.824 108.06 352.332 106.22 352.332ZM102.08 355.663C102.08 353.377 103.934 351.523 106.22 351.523C108.506 351.523 110.36 353.377 110.36 355.663C110.36 357.95 108.506 359.803 106.22 359.803C103.934 359.803 102.08 357.95 102.08 355.663Z" fill="#00B5D5"/>
<defs>
<filter id="filter0_f_4302_27453" x="93.0352" y="17.9023" width="493.748" height="489.262" filterUnits="userSpaceOnUse" color-interpolation-filters="sRGB">
<feFlood flood-opacity="0" result="BackgroundImageFix"/>
<feBlend mode="normal" in="SourceGraphic" in2="BackgroundImageFix" result="shape"/>
<feGaussianBlur stdDeviation="76.5" result="effect1_foregroundBlur_4302_27453"/>
</filter>
<linearGradient id="paint0_linear_4302_27453" x1="483.755" y1="114.853" x2="578.434" y2="34.1998" gradientUnits="userSpaceOnUse">
<stop stop-color="#FF6961"/>
<stop offset="0.22" stop-color="#FF6961" stop-opacity="0.76"/>
<stop offset="0.6" stop-color="#FF6961" stop-opacity="0.36"/>
<stop offset="0.87" stop-color="#FF6961" stop-opacity="0.1"/>
<stop offset="1" stop-color="#FF6961" stop-opacity="0"/>
</linearGradient>
<linearGradient id="paint1_linear_4302_27453" x1="537.26" y1="-443.101" x2="451.65" y2="277.946" gradientUnits="userSpaceOnUse">
<stop stop-color="#1B4A52" stop-opacity="0.35"/>
<stop offset="1" stop-color="white"/>
</linearGradient>
<linearGradient id="paint2_linear_4302_27453" x1="27591.1" y1="12874.8" x2="29618" y2="12874.8" gradientUnits="userSpaceOnUse">
<stop stop-color="#FFBE9D"/>
<stop offset="0.36" stop-color="#FDB597"/>
<stop offset="0.95" stop-color="#F99B86"/>
<stop offset="0.99" stop-color="#F99985"/>
</linearGradient>
<linearGradient id="paint3_linear_4302_27453" x1="653.096" y1="334.163" x2="602.443" y2="334.163" gradientUnits="userSpaceOnUse">
<stop stop-color="#FFBE9D"/>
<stop offset="0.36" stop-color="#FDB597"/>
<stop offset="0.95" stop-color="#F99B86"/>
<stop offset="0.99" stop-color="#F99985"/>
</linearGradient>
<linearGradient id="paint4_linear_4302_27453" x1="-265542" y1="15213.9" x2="-267219" y2="15213.9" gradientUnits="userSpaceOnUse">
<stop stop-color="#FFBE9D"/>
<stop offset="0.36" stop-color="#FDB597"/>
<stop offset="0.95" stop-color="#F99B86"/>
<stop offset="0.99" stop-color="#F99985"/>
</linearGradient>
<linearGradient id="paint5_linear_4302_27453" x1="5928.4" y1="2858.97" x2="5854.79" y2="2883.93" gradientUnits="userSpaceOnUse">
<stop stop-color="#FFBE9D"/>
<stop offset="0.36" stop-color="#FDB597"/>
<stop offset="0.95" stop-color="#F99B86"/>
<stop offset="0.99" stop-color="#F99985"/>
</linearGradient>
<linearGradient id="paint6_linear_4302_27453" x1="523.123" y1="324.58" x2="567.255" y2="305.241" gradientUnits="userSpaceOnUse">
<stop stop-color="#00B5D5"/>
<stop offset="0.08" stop-color="#00B5D5" stop-opacity="0.91"/>
<stop offset="0.54" stop-color="#00B5D5" stop-opacity="0.43"/>
<stop offset="0.85" stop-color="#00B5D5" stop-opacity="0.12"/>
<stop offset="1" stop-color="#00B5D5" stop-opacity="0"/>
</linearGradient>
<linearGradient id="paint7_linear_4302_27453" x1="-125897" y1="2298.7" x2="-126377" y2="2298.7" gradientUnits="userSpaceOnUse">
<stop stop-color="#FFBE9D"/>
<stop offset="0.36" stop-color="#FDB597"/>
<stop offset="0.95" stop-color="#F99B86"/>
<stop offset="0.99" stop-color="#F99985"/>
</linearGradient>
<linearGradient id="paint8_linear_4302_27453" x1="-215662" y1="4102.87" x2="-216607" y2="4102.87" gradientUnits="userSpaceOnUse">
<stop stop-color="#FFBE9D"/>
<stop offset="0.36" stop-color="#FDB597"/>
<stop offset="0.95" stop-color="#F99B86"/>
<stop offset="0.99" stop-color="#F99985"/>
</linearGradient>
<linearGradient id="paint9_linear_4302_27453" x1="-275428" y1="8826.86" x2="-277687" y2="8826.86" gradientUnits="userSpaceOnUse">
<stop stop-color="#FFBE9D"/>
<stop offset="0.36" stop-color="#FDB597"/>
<stop offset="0.95" stop-color="#F99B86"/>
<stop offset="0.99" stop-color="#F99985"/>
</linearGradient>
<linearGradient id="paint10_linear_4302_27453" x1="677.76" y1="591.4" x2="594.254" y2="-58.3423" gradientUnits="userSpaceOnUse">
<stop stop-color="#FF6961"/>
<stop offset="1" stop-color="#FF6961" stop-opacity="0"/>
</linearGradient>
<linearGradient id="paint11_linear_4302_27453" x1="242.426" y1="-6.87197" x2="206.64" y2="272.612" gradientUnits="userSpaceOnUse">
<stop stop-color="#E9A373"/>
<stop offset="1" stop-color="white"/>
</linearGradient>
<linearGradient id="paint12_linear_4302_27453" x1="-3519.15" y1="5745.84" x2="-3177.39" y2="5907.85" gradientUnits="userSpaceOnUse">
<stop stop-color="#FFBE9D"/>
<stop offset="0.36" stop-color="#FDB597"/>
<stop offset="0.95" stop-color="#F99B86"/>
<stop offset="0.99" stop-color="#F99985"/>
</linearGradient>
<linearGradient id="paint13_linear_4302_27453" x1="-6561.29" y1="6287.49" x2="-7200.44" y2="2577.56" gradientUnits="userSpaceOnUse">
<stop stop-color="#FFBE9D"/>
<stop offset="0.36" stop-color="#FDB597"/>
<stop offset="0.95" stop-color="#F99B86"/>
<stop offset="0.99" stop-color="#F99985"/>
</linearGradient>
<linearGradient id="paint14_linear_4302_27453" x1="-23719.8" y1="19707.3" x2="-18887.4" y2="23980.9" gradientUnits="userSpaceOnUse">
<stop stop-color="#FFBE9D"/>
<stop offset="0.36" stop-color="#FDB597"/>
<stop offset="0.95" stop-color="#F99B86"/>
<stop offset="0.99" stop-color="#F99985"/>
</linearGradient>
<linearGradient id="paint15_linear_4302_27453" x1="605.26" y1="252.401" x2="577.277" y2="146.764" gradientUnits="userSpaceOnUse">
<stop stop-color="#FF6961"/>
<stop offset="1" stop-color="#FF6961" stop-opacity="0"/>
</linearGradient>
<linearGradient id="paint16_linear_4302_27453" x1="15094.9" y1="5750.83" x2="8815.96" y2="-4300.51" gradientUnits="userSpaceOnUse">
<stop stop-color="#00B5D5"/>
<stop offset="0.08" stop-color="#00B5D5" stop-opacity="0.91"/>
<stop offset="1" stop-color="#00B5D5"/>
</linearGradient>
<linearGradient id="paint17_linear_4302_27453" x1="141.26" y1="269.89" x2="141.26" y2="388.203" gradientUnits="userSpaceOnUse">
<stop stop-color="#B1CBCF"/>
<stop offset="0.87" stop-color="#E6F8FB"/>
<stop offset="1" stop-color="white"/>
</linearGradient>
<linearGradient id="paint18_linear_4302_27453" x1="334.123" y1="301.005" x2="334.123" y2="481.015" gradientUnits="userSpaceOnUse">
<stop stop-color="#B1CBCF"/>
<stop offset="0.87" stop-color="#E6F8FB"/>
<stop offset="1" stop-color="white"/>
</linearGradient>
<linearGradient id="paint19_linear_4302_27453" x1="333.677" y1="332.587" x2="369.907" y2="346.002" gradientUnits="userSpaceOnUse">
<stop stop-color="#FF9C55"/>
<stop offset="0.99" stop-color="#FF9755"/>
</linearGradient>
<clipPath id="clip0_4302_27453">
<rect width="712.864" height="456.58" fill="white" transform="translate(60.6816 59.3594)"/>
</clipPath>
<clipPath id="clip1_4302_27453">
<rect width="35.8798" height="51.2567" fill="white" transform="translate(592.176 291.594)"/>
</clipPath>
</defs>
</svg>
